<?xml version="1.0" encoding="UTF-8" standalone="no"?>
<!DOCTYPE svg PUBLIC "-//W3C//DTD SVG 1.1//EN"
 "http://www.w3.org/Graphics/SVG/1.1/DTD/svg11.dtd">
<!-- Generated by graphviz version 8.0.2 (0)
 -->
<!-- Title: /home/ssergiu/projects/cub3d/include/cub3D.h Pages: 1 -->
<svg width="501pt" height="192pt"
 viewBox="0.00 0.00 500.50 192.00" xmlns="http://www.w3.org/2000/svg" xmlns:xlink="http://www.w3.org/1999/xlink">
<g id="graph0" class="graph" transform="scale(1 1) rotate(0) translate(4 188)">
<title>/home/ssergiu/projects/cub3d/include/cub3D.h</title>
<!-- Node1 -->
<g id="node1" class="node">
<title>Node1</title>
<g id="a_node1"><a xlink:title=" ">
<polygon fill="#999999" stroke="#666666" points="376.5,-184 257.5,-184 257.5,-154 376.5,-154 376.5,-184"/>
<text text-anchor="start" x="265.5" y="-172" font-family="Helvetica,sans-Serif" font-size="10.00">/home/ssergiu/projects</text>
<text text-anchor="middle" x="317" y="-161" font-family="Helvetica,sans-Serif" font-size="10.00">/cub3d/include/cub3D.h</text>
</a>
</g>
</g>
<!-- Node2 -->
<g id="node2" class="node">
<title>Node2</title>
<g id="a_node2"><a xlink:href="map__utils_8h.html" target="_top" xlink:title=" ">
<polygon fill="white" stroke="#666666" points="310.5,-118 185.5,-118 185.5,-77 310.5,-77 310.5,-118"/>
<text text-anchor="start" x="193.5" y="-106" font-family="Helvetica,sans-Serif" font-size="10.00">/home/ssergiu/projects</text>
<text text-anchor="start" x="193.5" y="-95" font-family="Helvetica,sans-Serif" font-size="10.00">/cub3d/include/map_utils</text>
<text text-anchor="middle" x="248" y="-84" font-family="Helvetica,sans-Serif" font-size="10.00">/map_utils.h</text>
</a>
</g>
</g>
<!-- Node1&#45;&gt;Node2 -->
<g id="edge1" class="edge">
<title>Node1&#45;&gt;Node2</title>
<path fill="none" stroke="#63b8ff" d="M295.09,-145.93C286.33,-137.1 276.31,-127.01 267.77,-118.42"/>
<polygon fill="#63b8ff" stroke="#63b8ff" points="292.17,-147.97 301.7,-152.6 297.14,-143.04 292.17,-147.97"/>
</g>
<!-- Node6 -->
<g id="node6" class="node">
<title>Node6</title>
<g id="a_node6"><a xlink:href="main_8c.html" target="_top" xlink:title=" ">
<polygon fill="white" stroke="#666666" points="445,-112.5 329,-112.5 329,-82.5 445,-82.5 445,-112.5"/>
<text text-anchor="start" x="337" y="-100.5" font-family="Helvetica,sans-Serif" font-size="10.00">/home/ssergiu/projects</text>
<text text-anchor="middle" x="387" y="-89.5" font-family="Helvetica,sans-Serif" font-size="10.00">/cub3d/src/main.c</text>
</a>
</g>
</g>
<!-- Node1&#45;&gt;Node6 -->
<g id="edge5" class="edge">
<title>Node1&#45;&gt;Node6</title>
<path fill="none" stroke="#63b8ff" d="M339.04,-146.12C349.96,-135.27 362.85,-122.48 372.51,-112.88"/>
<polygon fill="#63b8ff" stroke="#63b8ff" points="337.13,-143.07 332.5,-152.6 342.07,-148.04 337.13,-143.07"/>
</g>
<!-- Node3 -->
<g id="node3" class="node">
<title>Node3</title>
<g id="a_node3"><a xlink:href="draw__map_8c.html" target="_top" xlink:title=" ">
<polygon fill="white" stroke="#666666" points="164,-35.5 0,-35.5 0,-5.5 164,-5.5 164,-35.5"/>
<text text-anchor="start" x="8" y="-23.5" font-family="Helvetica,sans-Serif" font-size="10.00">/home/ssergiu/projects</text>
<text text-anchor="middle" x="82" y="-12.5" font-family="Helvetica,sans-Serif" font-size="10.00">/cub3d/src/map_utils/draw_map.c</text>
</a>
</g>
</g>
<!-- Node2&#45;&gt;Node3 -->
<g id="edge2" class="edge">
<title>Node2&#45;&gt;Node3</title>
<path fill="none" stroke="#63b8ff" d="M194.05,-72.12C167.56,-60.16 136.55,-46.15 113.88,-35.9"/>
<polygon fill="#63b8ff" stroke="#63b8ff" points="192.4,-75.67 202.95,-76.6 195.28,-69.29 192.4,-75.67"/>
</g>
<!-- Node4 -->
<g id="node4" class="node">
<title>Node4</title>
<g id="a_node4"><a xlink:href="draw__map__utils_8c.html" target="_top" xlink:title=" ">
<polygon fill="white" stroke="#666666" points="313.5,-41 182.5,-41 182.5,0 313.5,0 313.5,-41"/>
<text text-anchor="start" x="190.5" y="-29" font-family="Helvetica,sans-Serif" font-size="10.00">/home/ssergiu/projects</text>
<text text-anchor="start" x="190.5" y="-18" font-family="Helvetica,sans-Serif" font-size="10.00">/cub3d/src/map_utils/draw</text>
<text text-anchor="middle" x="248" y="-7" font-family="Helvetica,sans-Serif" font-size="10.00">_map_utils.c</text>
</a>
</g>
</g>
<!-- Node2&#45;&gt;Node4 -->
<g id="edge3" class="edge">
<title>Node2&#45;&gt;Node4</title>
<path fill="none" stroke="#63b8ff" d="M248,-65.93C248,-57.63 248,-48.87 248,-41.33"/>
<polygon fill="#63b8ff" stroke="#63b8ff" points="244.5,-65.79 248,-75.79 251.5,-65.79 244.5,-65.79"/>
</g>
<!-- Node5 -->
<g id="node5" class="node">
<title>Node5</title>
<g id="a_node5"><a xlink:href="read__map_8c.html" target="_top" xlink:title=" ">
<polygon fill="white" stroke="#666666" points="492.5,-35.5 331.5,-35.5 331.5,-5.5 492.5,-5.5 492.5,-35.5"/>
<text text-anchor="start" x="339.5" y="-23.5" font-family="Helvetica,sans-Serif" font-size="10.00">/home/ssergiu/projects</text>
<text text-anchor="middle" x="412" y="-12.5" font-family="Helvetica,sans-Serif" font-size="10.00">/cub3d/src/map_utils/read_map.c</text>
</a>
</g>
</g>
<!-- Node2&#45;&gt;Node5 -->
<g id="edge4" class="edge">
<title>Node2&#45;&gt;Node5</title>
<path fill="none" stroke="#63b8ff" d="M301.3,-72.12C327.47,-60.16 358.11,-46.15 380.5,-35.9"/>
<polygon fill="#63b8ff" stroke="#63b8ff" points="300.16,-69.26 292.52,-76.6 303.07,-75.62 300.16,-69.26"/>
</g>
</g>
</svg>
