<?xml version="1.0" encoding="UTF-8" standalone="no"?>
<!DOCTYPE svg PUBLIC "-//W3C//DTD SVG 1.1//EN"
 "http://www.w3.org/Graphics/SVG/1.1/DTD/svg11.dtd">
<!-- Generated by graphviz version 8.0.2 (0)
 -->
<!-- Title: /home/ssergiu/projects/cub3d/include/cub3D.h Pages: 1 -->
<svg width="473pt" height="159pt"
 viewBox="0.00 0.00 473.00 159.00" xmlns="http://www.w3.org/2000/svg" xmlns:xlink="http://www.w3.org/1999/xlink">
<g id="graph0" class="graph" transform="scale(1 1) rotate(0) translate(4 155)">
<title>/home/ssergiu/projects/cub3d/include/cub3D.h</title>
<!-- Node1 -->
<g id="node1" class="node">
<title>Node1</title>
<g id="a_node1"><a xlink:title=" ">
<polygon fill="#999999" stroke="#666666" points="243.5,-151 124.5,-151 124.5,-121 243.5,-121 243.5,-151"/>
<text text-anchor="start" x="132.5" y="-139" font-family="Helvetica,sans-Serif" font-size="10.00">/home/ssergiu/projects</text>
<text text-anchor="middle" x="184" y="-128" font-family="Helvetica,sans-Serif" font-size="10.00">/cub3d/include/cub3D.h</text>
</a>
</g>
</g>
<!-- Node2 -->
<g id="node2" class="node">
<title>Node2</title>
<g id="a_node2"><a xlink:title=" ">
<polygon fill="#e0e0e0" stroke="#999999" points="46,-79.5 0,-79.5 0,-60.5 46,-60.5 46,-79.5"/>
<text text-anchor="middle" x="23" y="-67.5" font-family="Helvetica,sans-Serif" font-size="10.00">stdio.h</text>
</a>
</g>
</g>
<!-- Node1&#45;&gt;Node2 -->
<g id="edge1" class="edge">
<title>Node1&#45;&gt;Node2</title>
<path fill="none" stroke="#63b8ff" d="M145.45,-120.55C119.72,-110.79 85.2,-97.45 55,-85 54.26,-84.7 53.52,-84.39 52.77,-84.07"/>
<polygon fill="#63b8ff" stroke="#63b8ff" points="54.49,-80.58 43.92,-79.87 51.74,-87.01 54.49,-80.58"/>
</g>
<!-- Node3 -->
<g id="node3" class="node">
<title>Node3</title>
<g id="a_node3"><a xlink:title=" ">
<polygon fill="#e0e0e0" stroke="#999999" points="111.5,-79.5 64.5,-79.5 64.5,-60.5 111.5,-60.5 111.5,-79.5"/>
<text text-anchor="middle" x="88" y="-67.5" font-family="Helvetica,sans-Serif" font-size="10.00">errno.h</text>
</a>
</g>
</g>
<!-- Node1&#45;&gt;Node3 -->
<g id="edge2" class="edge">
<title>Node1&#45;&gt;Node3</title>
<path fill="none" stroke="#63b8ff" d="M162.69,-120.8C147.14,-110.43 126.11,-96.4 110.32,-85.88"/>
<polygon fill="#63b8ff" stroke="#63b8ff" points="112.53,-82.48 102.27,-79.84 108.65,-88.3 112.53,-82.48"/>
</g>
<!-- Node4 -->
<g id="node4" class="node">
<title>Node4</title>
<g id="a_node4"><a xlink:title=" ">
<polygon fill="#e0e0e0" stroke="#999999" points="174,-79.5 130,-79.5 130,-60.5 174,-60.5 174,-79.5"/>
<text text-anchor="middle" x="152" y="-67.5" font-family="Helvetica,sans-Serif" font-size="10.00">fcntl.h</text>
</a>
</g>
</g>
<!-- Node1&#45;&gt;Node4 -->
<g id="edge3" class="edge">
<title>Node1&#45;&gt;Node4</title>
<path fill="none" stroke="#63b8ff" d="M176.9,-120.8C172.3,-111.6 166.27,-99.53 161.29,-89.58"/>
<polygon fill="#63b8ff" stroke="#63b8ff" points="164.02,-88.22 156.42,-80.84 157.76,-91.35 164.02,-88.22"/>
</g>
<!-- Node5 -->
<g id="node5" class="node">
<title>Node5</title>
<g id="a_node5"><a xlink:title=" ">
<polygon fill="#e0e0e0" stroke="#999999" points="241.5,-79.5 192.5,-79.5 192.5,-60.5 241.5,-60.5 241.5,-79.5"/>
<text text-anchor="middle" x="217" y="-67.5" font-family="Helvetica,sans-Serif" font-size="10.00">string.h</text>
</a>
</g>
</g>
<!-- Node1&#45;&gt;Node5 -->
<g id="edge4" class="edge">
<title>Node1&#45;&gt;Node5</title>
<path fill="none" stroke="#63b8ff" d="M191.32,-120.8C196.06,-111.6 202.29,-99.53 207.42,-89.58"/>
<polygon fill="#63b8ff" stroke="#63b8ff" points="210.97,-91.34 212.44,-80.84 204.75,-88.13 210.97,-91.34"/>
</g>
<!-- Node6 -->
<g id="node6" class="node">
<title>Node6</title>
<g id="a_node6"><a xlink:href="libft_8h.html" target="_top" xlink:title=" ">
<polygon fill="white" stroke="#666666" points="318.5,-79.5 259.5,-79.5 259.5,-60.5 318.5,-60.5 318.5,-79.5"/>
<text text-anchor="middle" x="289" y="-67.5" font-family="Helvetica,sans-Serif" font-size="10.00">libft/libft.h</text>
</a>
</g>
</g>
<!-- Node1&#45;&gt;Node6 -->
<g id="edge5" class="edge">
<title>Node1&#45;&gt;Node6</title>
<path fill="none" stroke="#63b8ff" d="M207.56,-120.64C224.65,-110.22 247.68,-96.19 264.89,-85.7"/>
<polygon fill="#63b8ff" stroke="#63b8ff" points="266.54,-88.18 273.26,-79.99 262.9,-82.2 266.54,-88.18"/>
</g>
<!-- Node10 -->
<g id="node10" class="node">
<title>Node10</title>
<g id="a_node10"><a xlink:title=" ">
<polygon fill="#e0e0e0" stroke="#999999" points="465,-85 337,-85 337,-55 465,-55 465,-85"/>
<text text-anchor="start" x="345" y="-73" font-family="Helvetica,sans-Serif" font-size="10.00">../external/MLX42/include</text>
<text text-anchor="middle" x="401" y="-62" font-family="Helvetica,sans-Serif" font-size="10.00">/MLX42/MLX42.h</text>
</a>
</g>
</g>
<!-- Node1&#45;&gt;Node10 -->
<g id="edge9" class="edge">
<title>Node1&#45;&gt;Node10</title>
<path fill="none" stroke="#63b8ff" d="M232.97,-120.56C265.26,-111.04 307.73,-98.51 341.89,-88.43"/>
<polygon fill="#63b8ff" stroke="#63b8ff" points="342.61,-91.58 351.21,-85.39 340.63,-84.86 342.61,-91.58"/>
</g>
<!-- Node7 -->
<g id="node7" class="node">
<title>Node7</title>
<g id="a_node7"><a xlink:title=" ">
<polygon fill="#e0e0e0" stroke="#999999" points="245,-19 193,-19 193,0 245,0 245,-19"/>
<text text-anchor="middle" x="219" y="-7" font-family="Helvetica,sans-Serif" font-size="10.00">stddef.h</text>
</a>
</g>
</g>
<!-- Node6&#45;&gt;Node7 -->
<g id="edge6" class="edge">
<title>Node6&#45;&gt;Node7</title>
<path fill="none" stroke="#63b8ff" d="M278.37,-60.12C267.68,-51.18 250.97,-37.22 238,-26.37"/>
<polygon fill="#63b8ff" stroke="#63b8ff" points="240.65,-23.2 230.73,-19.47 236.16,-28.57 240.65,-23.2"/>
</g>
<!-- Node8 -->
<g id="node8" class="node">
<title>Node8</title>
<g id="a_node8"><a xlink:title=" ">
<polygon fill="#e0e0e0" stroke="#999999" points="314.5,-19 263.5,-19 263.5,0 314.5,0 314.5,-19"/>
<text text-anchor="middle" x="289" y="-7" font-family="Helvetica,sans-Serif" font-size="10.00">unistd.h</text>
</a>
</g>
</g>
<!-- Node6&#45;&gt;Node8 -->
<g id="edge7" class="edge">
<title>Node6&#45;&gt;Node8</title>
<path fill="none" stroke="#63b8ff" d="M289,-60.37C289,-52.42 289,-40.33 289,-30.05"/>
<polygon fill="#63b8ff" stroke="#63b8ff" points="292.5,-30.17 289,-20.17 285.5,-30.17 292.5,-30.17"/>
</g>
<!-- Node9 -->
<g id="node9" class="node">
<title>Node9</title>
<g id="a_node9"><a xlink:title=" ">
<polygon fill="#e0e0e0" stroke="#999999" points="381,-19 333,-19 333,0 381,0 381,-19"/>
<text text-anchor="middle" x="357" y="-7" font-family="Helvetica,sans-Serif" font-size="10.00">stdlib.h</text>
</a>
</g>
</g>
<!-- Node6&#45;&gt;Node9 -->
<g id="edge8" class="edge">
<title>Node6&#45;&gt;Node9</title>
<path fill="none" stroke="#63b8ff" d="M299.33,-60.12C309.71,-51.18 325.95,-37.22 338.55,-26.37"/>
<polygon fill="#63b8ff" stroke="#63b8ff" points="340.28,-28.64 345.58,-19.47 335.71,-23.34 340.28,-28.64"/>
</g>
</g>
</svg>
