<?xml version="1.0" encoding="UTF-8" standalone="no"?>
<!DOCTYPE svg PUBLIC "-//W3C//DTD SVG 1.1//EN"
 "http://www.w3.org/Graphics/SVG/1.1/DTD/svg11.dtd">
<!-- Generated by graphviz version 8.0.2 (0)
 -->
<!-- Title: init_map_data Pages: 1 -->
<svg width="628pt" height="223pt"
 viewBox="0.00 0.00 628.00 222.59" xmlns="http://www.w3.org/2000/svg" xmlns:xlink="http://www.w3.org/1999/xlink">
<g id="graph0" class="graph" transform="scale(1 1) rotate(0) translate(4 218.59)">
<title>init_map_data</title>
<!-- Node1 -->
<g id="node1" class="node">
<title>Node1</title>
<g id="a_node1"><a xlink:title="Initializes map data.">
<polygon fill="#999999" stroke="#666666" points="77,-107.64 0,-107.64 0,-88.64 77,-88.64 77,-107.64"/>
<text text-anchor="middle" x="38.5" y="-95.64" font-family="Helvetica,sans-Serif" font-size="10.00">init_map_data</text>
</a>
</g>
</g>
<!-- Node2 -->
<g id="node2" class="node">
<title>Node2</title>
<g id="a_node2"><a xlink:href="read__map_8c.html#aabc8b9c956e025066b300e71e80f2590" target="_top" xlink:title="Frees any allocated memory and exits the program with the given error number.">
<polygon fill="white" stroke="#666666" points="422,-68.64 330,-68.64 330,-49.64 422,-49.64 422,-68.64"/>
<text text-anchor="middle" x="376" y="-56.64" font-family="Helvetica,sans-Serif" font-size="10.00">cleanup_and_exit</text>
</a>
</g>
</g>
<!-- Node1&#45;&gt;Node2 -->
<g id="edge1" class="edge">
<title>Node1&#45;&gt;Node2</title>
<path fill="none" stroke="#63b8ff" d="M77.26,-99.55C104.48,-100.15 142.08,-100.14 175,-97.14 228.48,-92.26 241.27,-86.32 294,-76.14 302.13,-74.57 310.71,-72.84 319.12,-71.11"/>
<polygon fill="#63b8ff" stroke="#63b8ff" points="319.56,-74.39 328.64,-68.93 318.14,-67.53 319.56,-74.39"/>
</g>
<!-- Node5 -->
<g id="node5" class="node">
<title>Node5</title>
<g id="a_node5"><a xlink:href="ft__split_8c.html#aa65c9de65051c8c589286cf133c4a1f4" target="_top" xlink:title="Splits a string into an array of strings based on a given delimiter.">
<polygon fill="white" stroke="#666666" points="167,-202.64 121,-202.64 121,-183.64 167,-183.64 167,-202.64"/>
<text text-anchor="middle" x="144" y="-190.64" font-family="Helvetica,sans-Serif" font-size="10.00">ft_split</text>
</a>
</g>
</g>
<!-- Node1&#45;&gt;Node5 -->
<g id="edge4" class="edge">
<title>Node1&#45;&gt;Node5</title>
<path fill="none" stroke="#63b8ff" d="M49.21,-108.09C63.02,-122.1 89.29,-148.28 113,-169.14 115.84,-171.64 118.9,-174.21 121.93,-176.69"/>
<polygon fill="#63b8ff" stroke="#63b8ff" points="119.24,-179.83 129.23,-183.35 123.62,-174.37 119.24,-179.83"/>
</g>
<!-- Node7 -->
<g id="node7" class="node">
<title>Node7</title>
<g id="a_node7"><a xlink:href="ft__strlen_8c.html#a828402378653640f545a4be2e00e92f9" target="_top" xlink:title="Calculates the length of a string.">
<polygon fill="white" stroke="#666666" points="402,-202.64 350,-202.64 350,-183.64 402,-183.64 402,-202.64"/>
<text text-anchor="middle" x="376" y="-190.64" font-family="Helvetica,sans-Serif" font-size="10.00">ft_strlen</text>
</a>
</g>
</g>
<!-- Node1&#45;&gt;Node7 -->
<g id="edge8" class="edge">
<title>Node1&#45;&gt;Node7</title>
<path fill="none" stroke="#63b8ff" d="M74.77,-108.13C139.02,-126.32 274.46,-164.67 339.14,-182.99"/>
<polygon fill="#63b8ff" stroke="#63b8ff" points="338.06,-186.6 348.63,-185.96 339.96,-179.86 338.06,-186.6"/>
</g>
<!-- Node8 -->
<g id="node8" class="node">
<title>Node8</title>
<g id="a_node8"><a xlink:href="draw__map__utils_8c.html#ad624da07f82233cb9bf10960641f9fec" target="_top" xlink:title="Gets the height of a map.">
<polygon fill="white" stroke="#666666" points="175,-88.64 113,-88.64 113,-69.64 175,-69.64 175,-88.64"/>
<text text-anchor="middle" x="144" y="-76.64" font-family="Helvetica,sans-Serif" font-size="10.00">get_height</text>
</a>
</g>
</g>
<!-- Node1&#45;&gt;Node8 -->
<g id="edge9" class="edge">
<title>Node1&#45;&gt;Node8</title>
<path fill="none" stroke="#63b8ff" d="M77.45,-91.17C85.46,-89.7 93.95,-88.14 102.07,-86.65"/>
<polygon fill="#63b8ff" stroke="#63b8ff" points="102.62,-89.93 111.83,-84.68 101.36,-83.04 102.62,-89.93"/>
</g>
<!-- Node9 -->
<g id="node9" class="node">
<title>Node9</title>
<g id="a_node9"><a xlink:href="read__map_8c.html#af11ad10198633d526882d9ebabf21042" target="_top" xlink:title="Handles the given error number, prints an error message to the standard error output,...">
<polygon fill="white" stroke="#666666" points="411,-31.64 341,-31.64 341,-12.64 411,-12.64 411,-31.64"/>
<text text-anchor="middle" x="376" y="-19.64" font-family="Helvetica,sans-Serif" font-size="10.00">handle_error</text>
</a>
</g>
</g>
<!-- Node1&#45;&gt;Node9 -->
<g id="edge10" class="edge">
<title>Node1&#45;&gt;Node9</title>
<path fill="none" stroke="#63b8ff" d="M45.52,-88.3C56.52,-71.33 81.64,-36.97 113,-22.14 183.01,10.97 275.8,0.04 330.09,-11"/>
<polygon fill="#63b8ff" stroke="#63b8ff" points="329.23,-14.61 339.74,-13.27 330.69,-7.76 329.23,-14.61"/>
</g>
<!-- Node10 -->
<g id="node10" class="node">
<title>Node10</title>
<g id="a_node10"><a xlink:href="read__map_8c.html#a4262bf4509b96716171e25f0f9f0644e" target="_top" xlink:title="Reads the contents of the file with the given name into a dynamically allocated buffer.">
<polygon fill="white" stroke="#666666" points="173.5,-50.64 114.5,-50.64 114.5,-31.64 173.5,-31.64 173.5,-50.64"/>
<text text-anchor="middle" x="144" y="-38.64" font-family="Helvetica,sans-Serif" font-size="10.00">read_map</text>
</a>
</g>
</g>
<!-- Node1&#45;&gt;Node10 -->
<g id="edge12" class="edge">
<title>Node1&#45;&gt;Node10</title>
<path fill="none" stroke="#63b8ff" d="M57.53,-88.21C73.56,-79.38 97.23,-66.35 115.6,-56.23"/>
<polygon fill="#63b8ff" stroke="#63b8ff" points="117.11,-58.84 124.18,-50.95 113.73,-52.71 117.11,-58.84"/>
</g>
<!-- Node3 -->
<g id="node3" class="node">
<title>Node3</title>
<g id="a_node3"><a xlink:href="read__map_8c.html#af5c60b16fc036394aa182bd09cc16e5d" target="_top" xlink:title="Prints an error message to the standard error output.">
<polygon fill="white" stroke="#666666" points="518,-49.64 458,-49.64 458,-30.64 518,-30.64 518,-49.64"/>
<text text-anchor="middle" x="488" y="-37.64" font-family="Helvetica,sans-Serif" font-size="10.00">print_error</text>
</a>
</g>
</g>
<!-- Node2&#45;&gt;Node3 -->
<g id="edge2" class="edge">
<title>Node2&#45;&gt;Node3</title>
<path fill="none" stroke="#63b8ff" d="M422.38,-51.3C430.6,-49.88 439.11,-48.41 447.16,-47.02"/>
<polygon fill="#63b8ff" stroke="#63b8ff" points="447.51,-50.34 456.76,-45.19 446.31,-43.44 447.51,-50.34"/>
</g>
<!-- Node4 -->
<g id="node4" class="node">
<title>Node4</title>
<g id="a_node4"><a xlink:href="ft__putstring__fd_8c.html#acefce9ac519f8f8b7d3fde33dbafe469" target="_top" xlink:title=" ">
<polygon fill="white" stroke="#666666" points="620,-49.64 554,-49.64 554,-30.64 620,-30.64 620,-49.64"/>
<text text-anchor="middle" x="587" y="-37.64" font-family="Helvetica,sans-Serif" font-size="10.00">ft_putstr_fd</text>
</a>
</g>
</g>
<!-- Node3&#45;&gt;Node4 -->
<g id="edge3" class="edge">
<title>Node3&#45;&gt;Node4</title>
<path fill="none" stroke="#63b8ff" d="M518.37,-40.14C526.12,-40.14 534.65,-40.14 542.97,-40.14"/>
<polygon fill="#63b8ff" stroke="#63b8ff" points="542.69,-43.64 552.69,-40.14 542.69,-36.64 542.69,-43.64"/>
</g>
<!-- Node6 -->
<g id="node6" class="node">
<title>Node6</title>
<g id="a_node6"><a xlink:href="ft__strlcpy_8c.html#a12f759eb9793cf306fede66d0b7de0fc" target="_top" xlink:title="Copy a string to a destination buffer with a specified maximum size.">
<polygon fill="white" stroke="#666666" points="281,-202.64 224,-202.64 224,-183.64 281,-183.64 281,-202.64"/>
<text text-anchor="middle" x="252.5" y="-190.64" font-family="Helvetica,sans-Serif" font-size="10.00">ft_strlcpy</text>
</a>
</g>
</g>
<!-- Node5&#45;&gt;Node6 -->
<g id="edge5" class="edge">
<title>Node5&#45;&gt;Node6</title>
<path fill="none" stroke="#63b8ff" d="M167.33,-193.14C180.48,-193.14 197.49,-193.14 212.77,-193.14"/>
<polygon fill="#63b8ff" stroke="#63b8ff" points="212.51,-196.64 222.51,-193.14 212.51,-189.64 212.51,-196.64"/>
</g>
<!-- Node5&#45;&gt;Node7 -->
<g id="edge7" class="edge">
<title>Node5&#45;&gt;Node7</title>
<path fill="none" stroke="#63b8ff" d="M167.3,-200.81C179.95,-204.76 196.17,-209.15 211,-211.14 247.56,-216.04 257.33,-215.17 294,-211.14 308.91,-209.5 325.1,-206.22 339.06,-202.9"/>
<polygon fill="#63b8ff" stroke="#63b8ff" points="339.84,-206.06 348.7,-200.26 338.15,-199.27 339.84,-206.06"/>
</g>
<!-- Node6&#45;&gt;Node7 -->
<g id="edge6" class="edge">
<title>Node6&#45;&gt;Node7</title>
<path fill="none" stroke="#63b8ff" d="M281.37,-193.14C298.43,-193.14 320.44,-193.14 338.83,-193.14"/>
<polygon fill="#63b8ff" stroke="#63b8ff" points="338.74,-196.64 348.74,-193.14 338.74,-189.64 338.74,-196.64"/>
</g>
<!-- Node9&#45;&gt;Node3 -->
<g id="edge11" class="edge">
<title>Node9&#45;&gt;Node3</title>
<path fill="none" stroke="#63b8ff" d="M411.2,-27.74C422.48,-29.58 435.13,-31.65 446.81,-33.56"/>
<polygon fill="#63b8ff" stroke="#63b8ff" points="446.21,-37.18 456.64,-35.34 447.34,-30.27 446.21,-37.18"/>
</g>
<!-- Node10&#45;&gt;Node2 -->
<g id="edge13" class="edge">
<title>Node10&#45;&gt;Node2</title>
<path fill="none" stroke="#63b8ff" d="M173.9,-50.81C185.32,-54.16 198.64,-57.48 211,-59.14 246.59,-63.91 286.92,-63.98 318.68,-62.82"/>
<polygon fill="#63b8ff" stroke="#63b8ff" points="318.69,-66.28 328.54,-62.37 318.4,-59.29 318.69,-66.28"/>
</g>
<!-- Node10&#45;&gt;Node9 -->
<g id="edge17" class="edge">
<title>Node10&#45;&gt;Node9</title>
<path fill="none" stroke="#63b8ff" d="M172.89,-31.24C184.51,-27.6 198.25,-23.94 211,-22.14 250.89,-16.51 296.79,-17.11 329.87,-18.76"/>
<polygon fill="#63b8ff" stroke="#63b8ff" points="329.39,-22.3 339.57,-19.36 329.78,-15.31 329.39,-22.3"/>
</g>
<!-- Node11 -->
<g id="node11" class="node">
<title>Node11</title>
<g id="a_node11"><a xlink:href="read__map_8c.html#a973f5273453bacdf37c27ef24bdd540d" target="_top" xlink:title="Returns the total number of bytes in the file with the given filename.">
<polygon fill="white" stroke="#666666" points="294,-50.64 211,-50.64 211,-31.64 294,-31.64 294,-50.64"/>
<text text-anchor="middle" x="252.5" y="-38.64" font-family="Helvetica,sans-Serif" font-size="10.00">get_total_bytes</text>
</a>
</g>
</g>
<!-- Node10&#45;&gt;Node11 -->
<g id="edge14" class="edge">
<title>Node10&#45;&gt;Node11</title>
<path fill="none" stroke="#63b8ff" d="M173.82,-41.14C181.88,-41.14 190.89,-41.14 199.84,-41.14"/>
<polygon fill="#63b8ff" stroke="#63b8ff" points="199.66,-44.64 209.66,-41.14 199.66,-37.64 199.66,-44.64"/>
</g>
<!-- Node11&#45;&gt;Node2 -->
<g id="edge15" class="edge">
<title>Node11&#45;&gt;Node2</title>
<path fill="none" stroke="#63b8ff" d="M294.3,-47.18C302.16,-48.35 310.52,-49.59 318.77,-50.81"/>
<polygon fill="#63b8ff" stroke="#63b8ff" points="318.1,-54.4 328.5,-52.4 319.12,-47.47 318.1,-54.4"/>
</g>
<!-- Node11&#45;&gt;Node9 -->
<g id="edge16" class="edge">
<title>Node11&#45;&gt;Node9</title>
<path fill="none" stroke="#63b8ff" d="M294.3,-34.76C305.68,-32.98 318.13,-31.03 329.76,-29.22"/>
<polygon fill="#63b8ff" stroke="#63b8ff" points="330.26,-32.52 339.6,-27.52 329.17,-25.61 330.26,-32.52"/>
</g>
</g>
</svg>
