<?xml version="1.0" encoding="UTF-8" standalone="no"?>
<!DOCTYPE svg PUBLIC "-//W3C//DTD SVG 1.1//EN"
 "http://www.w3.org/Graphics/SVG/1.1/DTD/svg11.dtd">
<!-- Generated by graphviz version 8.0.2 (0)
 -->
<!-- Title: /home/ssergiu/projects/cub3d/src/libft/src/ft_putstring_fd.c Pages: 1 -->
<svg width="196pt" height="170pt"
 viewBox="0.00 0.00 196.00 170.00" xmlns="http://www.w3.org/2000/svg" xmlns:xlink="http://www.w3.org/1999/xlink">
<g id="graph0" class="graph" transform="scale(1 1) rotate(0) translate(4 166)">
<title>/home/ssergiu/projects/cub3d/src/libft/src/ft_putstring_fd.c</title>
<!-- Node1 -->
<g id="node1" class="node">
<title>Node1</title>
<g id="a_node1"><a xlink:title=" ">
<polygon fill="#999999" stroke="#666666" points="154,-162 38,-162 38,-121 154,-121 154,-162"/>
<text text-anchor="start" x="46" y="-150" font-family="Helvetica,sans-Serif" font-size="10.00">/home/ssergiu/projects</text>
<text text-anchor="start" x="46" y="-139" font-family="Helvetica,sans-Serif" font-size="10.00">/cub3d/src/libft/src/ft</text>
<text text-anchor="middle" x="96" y="-128" font-family="Helvetica,sans-Serif" font-size="10.00">_putstring_fd.c</text>
</a>
</g>
</g>
<!-- Node2 -->
<g id="node2" class="node">
<title>Node2</title>
<g id="a_node2"><a xlink:href="libft_8h.html" target="_top" xlink:title=" ">
<polygon fill="white" stroke="#666666" points="142.5,-85 49.5,-85 49.5,-55 142.5,-55 142.5,-85"/>
<text text-anchor="start" x="57.5" y="-73" font-family="Helvetica,sans-Serif" font-size="10.00">../../../include/libft</text>
<text text-anchor="middle" x="96" y="-62" font-family="Helvetica,sans-Serif" font-size="10.00">/libft.h</text>
</a>
</g>
</g>
<!-- Node1&#45;&gt;Node2 -->
<g id="edge1" class="edge">
<title>Node1&#45;&gt;Node2</title>
<path fill="none" stroke="#63b8ff" d="M96,-120.77C96,-113.13 96,-104.3 96,-96.21"/>
<polygon fill="#63b8ff" stroke="#63b8ff" points="99.5,-96.47 96,-86.47 92.5,-96.47 99.5,-96.47"/>
</g>
<!-- Node3 -->
<g id="node3" class="node">
<title>Node3</title>
<g id="a_node3"><a xlink:title=" ">
<polygon fill="#e0e0e0" stroke="#999999" points="52,-19 0,-19 0,0 52,0 52,-19"/>
<text text-anchor="middle" x="26" y="-7" font-family="Helvetica,sans-Serif" font-size="10.00">stddef.h</text>
</a>
</g>
</g>
<!-- Node2&#45;&gt;Node3 -->
<g id="edge2" class="edge">
<title>Node2&#45;&gt;Node3</title>
<path fill="none" stroke="#63b8ff" d="M78.7,-54.54C68.32,-45.87 55.13,-34.85 44.54,-26"/>
<polygon fill="#63b8ff" stroke="#63b8ff" points="47.3,-22.9 37.38,-19.18 42.81,-28.27 47.3,-22.9"/>
</g>
<!-- Node4 -->
<g id="node4" class="node">
<title>Node4</title>
<g id="a_node4"><a xlink:title=" ">
<polygon fill="#e0e0e0" stroke="#999999" points="121.5,-19 70.5,-19 70.5,0 121.5,0 121.5,-19"/>
<text text-anchor="middle" x="96" y="-7" font-family="Helvetica,sans-Serif" font-size="10.00">unistd.h</text>
</a>
</g>
</g>
<!-- Node2&#45;&gt;Node4 -->
<g id="edge3" class="edge">
<title>Node2&#45;&gt;Node4</title>
<path fill="none" stroke="#63b8ff" d="M96,-54.54C96,-47.17 96,-38.1 96,-30.11"/>
<polygon fill="#63b8ff" stroke="#63b8ff" points="99.5,-30.18 96,-20.18 92.5,-30.18 99.5,-30.18"/>
</g>
<!-- Node5 -->
<g id="node5" class="node">
<title>Node5</title>
<g id="a_node5"><a xlink:title=" ">
<polygon fill="#e0e0e0" stroke="#999999" points="188,-19 140,-19 140,0 188,0 188,-19"/>
<text text-anchor="middle" x="164" y="-7" font-family="Helvetica,sans-Serif" font-size="10.00">stdlib.h</text>
</a>
</g>
</g>
<!-- Node2&#45;&gt;Node5 -->
<g id="edge4" class="edge">
<title>Node2&#45;&gt;Node5</title>
<path fill="none" stroke="#63b8ff" d="M112.81,-54.54C122.79,-45.96 135.44,-35.07 145.68,-26.26"/>
<polygon fill="#63b8ff" stroke="#63b8ff" points="147.62,-28.35 152.92,-19.18 143.05,-23.04 147.62,-28.35"/>
</g>
</g>
</svg>
