<?xml version="1.0" encoding="UTF-8" standalone="no"?>
<!DOCTYPE svg PUBLIC "-//W3C//DTD SVG 1.1//EN"
 "http://www.w3.org/Graphics/SVG/1.1/DTD/svg11.dtd">
<!-- Generated by graphviz version 8.0.2 (0)
 -->
<!-- Title: ft_putstr_fd Pages: 1 -->
<!--zoomable 170 -->
<svg id="main" version="1.1" xmlns="http://www.w3.org/2000/svg" xmlns:xlink="http://www.w3.org/1999/xlink" xml:space="preserve" onload="init(evt)">
<style type="text/css"><![CDATA[
.edge:hover path { stroke: red; }
.edge:hover polygon { stroke: red; fill: red; }
]]></style>
<script type="text/javascript"><![CDATA[
var edges = document.getElementsByTagName('g');
if (edges && edges.length) {
  for (var i=0;i<edges.length;i++) {
    if (edges[i].id.substr(0,4)=='edge') {
      edges[i].setAttribute('class','edge');
    }
  }
}
]]></script>
        <defs>
                <circle id="rim" cx="0" cy="0" r="7"/>
                <circle id="rim2" cx="0" cy="0" r="3.5"/>
                <g id="zoomPlus">
                        <use xlink:href="#rim" fill="#404040">
                                <set attributeName="fill" to="#808080" begin="zoomplus.mouseover" end="zoomplus.mouseout"/>
                        </use>
                        <path d="M-4,0h8M0,-4v8" fill="none" stroke="white" stroke-width="1.5" pointer-events="none"/>
                </g>
                <g id="zoomMin">
                        <use xlink:href="#rim" fill="#404040">
                                <set attributeName="fill" to="#808080" begin="zoomminus.mouseover" end="zoomminus.mouseout"/>
                        </use>
                        <path d="M-4,0h8" fill="none" stroke="white" stroke-width="1.5" pointer-events="none"/>
                </g>
                <g id="dirArrow">
                        <path fill="none" stroke="white" stroke-width="1.5" d="M0,-3.0v7 M-2.5,-0.5L0,-3.0L2.5,-0.5"/>
                </g>
               <g id="resetDef">
                       <use xlink:href="#rim2" fill="#404040">
                               <set attributeName="fill" to="#808080" begin="reset.mouseover" end="reset.mouseout"/>
                       </use>
               </g>
        </defs>

<script type="text/javascript">
var viewWidth = 732;
var viewHeight = 170;
var sectionId = 'dynsection-1';
</script>
<script xlink:href="svgpan.js"/>
<svg id="graph" class="graph">
<g id="viewport">
<title>ft_putstr_fd</title>
<!-- Node1 -->
<g id="node1" class="node">
<title>Node1</title>
<g id="a_node1"><a xlink:title=" ">
<polygon fill="#999999" stroke="#666666" points="724,-114 658,-114 658,-95 724,-95 724,-114"/>
<text text-anchor="middle" x="691" y="-102" font-family="Helvetica,sans-Serif" font-size="10.00">ft_putstr_fd</text>
</a>
</g>
</g>
<!-- Node2 -->
<g id="node2" class="node">
<title>Node2</title>
<g id="a_node2"><a xlink:href="read__map_8c.html#af5c60b16fc036394aa182bd09cc16e5d" target="_top" xlink:title="Prints an error message to the standard error output.">
<polygon fill="white" stroke="#666666" points="622,-114 562,-114 562,-95 622,-95 622,-114"/>
<text text-anchor="middle" x="592" y="-102" font-family="Helvetica,sans-Serif" font-size="10.00">print_error</text>
</a>
</g>
</g>
<!-- Node1&#45;&gt;Node2 -->
<g id="edge1" class="edge">
<title>Node1&#45;&gt;Node2</title>
<path fill="none" stroke="#63b8ff" d="M646.93,-104.5C638.57,-104.5 630,-104.5 622.22,-104.5"/>
<polygon fill="#63b8ff" stroke="#63b8ff" points="646.7,-108 656.7,-104.5 646.7,-101 646.7,-108"/>
</g>
<!-- Node3 -->
<g id="node3" class="node">
<title>Node3</title>
<g id="a_node3"><a xlink:href="read__map_8c.html#aabc8b9c956e025066b300e71e80f2590" target="_top" xlink:title="Frees any allocated memory and exits the program with the given error number.">
<polygon fill="white" stroke="#666666" points="526,-152 434,-152 434,-133 526,-133 526,-152"/>
<text text-anchor="middle" x="480" y="-140" font-family="Helvetica,sans-Serif" font-size="10.00">cleanup_and_exit</text>
</a>
</g>
</g>
<!-- Node2&#45;&gt;Node3 -->
<g id="edge2" class="edge">
<title>Node2&#45;&gt;Node3</title>
<path fill="none" stroke="#63b8ff" d="M551.83,-118.03C537.93,-122.83 522.57,-128.14 509.71,-132.58"/>
<polygon fill="#63b8ff" stroke="#63b8ff" points="552.79,-121.06 561.1,-114.48 550.5,-114.44 552.79,-121.06"/>
</g>
<!-- Node8 -->
<g id="node8" class="node">
<title>Node8</title>
<g id="a_node8"><a xlink:href="read__map_8c.html#af11ad10198633d526882d9ebabf21042" target="_top" xlink:title="Handles the given error number, prints an error message to the standard error output,...">
<polygon fill="white" stroke="#666666" points="515,-95 445,-95 445,-76 515,-76 515,-95"/>
<text text-anchor="middle" x="480" y="-83" font-family="Helvetica,sans-Serif" font-size="10.00">handle_error</text>
</a>
</g>
</g>
<!-- Node2&#45;&gt;Node8 -->
<g id="edge9" class="edge">
<title>Node2&#45;&gt;Node8</title>
<path fill="none" stroke="#63b8ff" d="M550.72,-97.54C539.08,-95.53 526.48,-93.36 515.24,-91.41"/>
<polygon fill="#63b8ff" stroke="#63b8ff" points="550.07,-101.16 560.52,-99.41 551.26,-94.26 550.07,-101.16"/>
</g>
<!-- Node4 -->
<g id="node4" class="node">
<title>Node4</title>
<g id="a_node4"><a xlink:href="read__map_8c.html#a973f5273453bacdf37c27ef24bdd540d" target="_top" xlink:title="Returns the total number of bytes in the file with the given filename.">
<polygon fill="white" stroke="#666666" points="398,-133 315,-133 315,-114 398,-114 398,-133"/>
<text text-anchor="middle" x="356.5" y="-121" font-family="Helvetica,sans-Serif" font-size="10.00">get_total_bytes</text>
</a>
</g>
</g>
<!-- Node3&#45;&gt;Node4 -->
<g id="edge3" class="edge">
<title>Node3&#45;&gt;Node4</title>
<path fill="none" stroke="#63b8ff" d="M422.98,-133.74C414.69,-132.44 406.28,-131.13 398.37,-129.89"/>
<polygon fill="#63b8ff" stroke="#63b8ff" points="422.34,-137.34 432.76,-135.43 423.42,-130.42 422.34,-137.34"/>
</g>
<!-- Node5 -->
<g id="node5" class="node">
<title>Node5</title>
<g id="a_node5"><a xlink:href="read__map_8c.html#a4262bf4509b96716171e25f0f9f0644e" target="_top" xlink:title="Reads the contents of the file with the given name into a dynamically allocated buffer.">
<polygon fill="white" stroke="#666666" points="262.5,-124 203.5,-124 203.5,-105 262.5,-105 262.5,-124"/>
<text text-anchor="middle" x="233" y="-112" font-family="Helvetica,sans-Serif" font-size="10.00">read_map</text>
</a>
</g>
</g>
<!-- Node3&#45;&gt;Node5 -->
<g id="edge8" class="edge">
<title>Node3&#45;&gt;Node5</title>
<path fill="none" stroke="#63b8ff" d="M422.9,-146.5C391.05,-147.69 350.56,-147.38 315,-141.5 294.96,-138.19 273.18,-130.69 257.25,-124.43"/>
<polygon fill="#63b8ff" stroke="#63b8ff" points="422.94,-149.96 432.78,-146.02 422.64,-142.97 422.94,-149.96"/>
</g>
<!-- Node6 -->
<g id="node6" class="node">
<title>Node6</title>
<g id="a_node6"><a xlink:href="draw__map__utils_8c.html#a3efc0a465ac3693c6748963564a7dc0e" target="_top" xlink:title="Initializes map data.">
<polygon fill="white" stroke="#666666" points="151,-114 74,-114 74,-95 151,-95 151,-114"/>
<text text-anchor="middle" x="112.5" y="-102" font-family="Helvetica,sans-Serif" font-size="10.00">init_map_data</text>
</a>
</g>
</g>
<!-- Node3&#45;&gt;Node6 -->
<g id="edge7" class="edge">
<title>Node3&#45;&gt;Node6</title>
<path fill="none" stroke="#63b8ff" d="M426.05,-154.5C416.75,-156.16 407.13,-157.61 398,-158.5 303.96,-167.7 277.75,-158.81 187,-132.5 169.82,-127.52 150.98,-120.3 136.67,-114.45"/>
<polygon fill="#63b8ff" stroke="#63b8ff" points="426.6,-157.76 435.77,-152.46 425.29,-150.89 426.6,-157.76"/>
</g>
<!-- Node4&#45;&gt;Node5 -->
<g id="edge4" class="edge">
<title>Node4&#45;&gt;Node5</title>
<path fill="none" stroke="#63b8ff" d="M304.13,-119.7C290.07,-118.65 275.31,-117.56 262.98,-116.65"/>
<polygon fill="#63b8ff" stroke="#63b8ff" points="303.47,-123.23 313.7,-120.48 303.99,-116.25 303.47,-123.23"/>
</g>
<!-- Node5&#45;&gt;Node6 -->
<g id="edge5" class="edge">
<title>Node5&#45;&gt;Node6</title>
<path fill="none" stroke="#63b8ff" d="M192.28,-111.15C179,-110.03 164.26,-108.78 151.15,-107.68"/>
<polygon fill="#63b8ff" stroke="#63b8ff" points="191.75,-114.7 202.01,-112.05 192.34,-107.73 191.75,-114.7"/>
</g>
<!-- Node7 -->
<g id="node7" class="node">
<title>Node7</title>
<g id="a_node7"><a xlink:href="main_8c.html#a3c04138a5bfe5d72780bb7e82a18e627" target="_top" xlink:title=" ">
<polygon fill="white" stroke="#666666" points="38,-76 0,-76 0,-57 38,-57 38,-76"/>
<text text-anchor="middle" x="19" y="-64" font-family="Helvetica,sans-Serif" font-size="10.00">main</text>
</a>
</g>
</g>
<!-- Node6&#45;&gt;Node7 -->
<g id="edge6" class="edge">
<title>Node6&#45;&gt;Node7</title>
<path fill="none" stroke="#63b8ff" d="M77.66,-90.45C64.37,-84.93 49.63,-78.81 38.39,-74.14"/>
<polygon fill="#63b8ff" stroke="#63b8ff" points="75.88,-93.91 86.46,-94.52 78.57,-87.45 75.88,-93.91"/>
</g>
<!-- Node8&#45;&gt;Node4 -->
<g id="edge12" class="edge">
<title>Node8&#45;&gt;Node4</title>
<path fill="none" stroke="#63b8ff" d="M436.63,-98.75C421.05,-103.62 403.69,-109.05 389.21,-113.58"/>
<polygon fill="#63b8ff" stroke="#63b8ff" points="437.58,-101.81 446.08,-95.48 435.49,-95.13 437.58,-101.81"/>
</g>
<!-- Node8&#45;&gt;Node5 -->
<g id="edge14" class="edge">
<title>Node8&#45;&gt;Node5</title>
<path fill="none" stroke="#63b8ff" d="M434.1,-90.61C401.13,-94.38 355.27,-99.68 315,-104.5 297.7,-106.57 278.32,-108.96 262.86,-110.88"/>
<polygon fill="#63b8ff" stroke="#63b8ff" points="434.22,-94.01 443.75,-89.39 433.42,-87.05 434.22,-94.01"/>
</g>
<!-- Node8&#45;&gt;Node6 -->
<g id="edge13" class="edge">
<title>Node8&#45;&gt;Node6</title>
<path fill="none" stroke="#63b8ff" d="M433.91,-85.82C376.49,-86.51 274.23,-88.68 187,-95.5 175.34,-96.41 162.68,-97.81 151.21,-99.24"/>
<polygon fill="#63b8ff" stroke="#63b8ff" points="433.82,-89.31 443.78,-85.7 433.74,-82.31 433.82,-89.31"/>
</g>
<!-- Node9 -->
<g id="node9" class="node">
<title>Node9</title>
<g id="a_node9"><a xlink:href="read__map_8c.html#a287e1eb420c186ddb3ca11b0d5b6cab4" target="_top" xlink:title="Checks if the given filename is valid and ends with &quot;.cub&quot;.">
<polygon fill="white" stroke="#666666" points="279,-19 187,-19 187,0 279,0 279,-19"/>
<text text-anchor="middle" x="233" y="-7" font-family="Helvetica,sans-Serif" font-size="10.00">filename_is_valid</text>
</a>
</g>
</g>
<!-- Node8&#45;&gt;Node9 -->
<g id="edge10" class="edge">
<title>Node8&#45;&gt;Node9</title>
<path fill="none" stroke="#63b8ff" d="M458.92,-69.14C443.28,-57.28 420.5,-41.92 398,-33.5 359.59,-19.13 313.13,-13.32 279.48,-11"/>
<polygon fill="#63b8ff" stroke="#63b8ff" points="456.22,-72.24 466.26,-75.63 460.52,-66.72 456.22,-72.24"/>
</g>
<!-- Node9&#45;&gt;Node7 -->
<g id="edge11" class="edge">
<title>Node9&#45;&gt;Node7</title>
<path fill="none" stroke="#63b8ff" d="M184.69,-22.22C138.48,-34.65 70.52,-52.92 38.27,-61.59"/>
<polygon fill="#63b8ff" stroke="#63b8ff" points="185.32,-25.41 194.07,-19.43 183.51,-18.65 185.32,-25.41"/>
</g>
</g>
</svg>
        <g id="navigator" transform="translate(0 0)" fill="#404254">
                <rect fill="#f2f5e9" fill-opacity="0.5" stroke="#606060" stroke-width=".5" x="0" y="0" width="60" height="60"/>
                <use id="zoomplus" xlink:href="#zoomPlus" x="17" y="9" onmousedown="handleZoom(evt,'in')"/>
                <use id="zoomminus" xlink:href="#zoomMin" x="42" y="9" onmousedown="handleZoom(evt,'out')"/>
                <use id="reset" xlink:href="#resetDef" x="30" y="36" onmousedown="handleReset()"/>
                <g id="arrowUp" xlink:href="#dirArrow" transform="translate(30 24)" onmousedown="handlePan(0,-1)">
                  <use xlink:href="#rim" fill="#404040">
                        <set attributeName="fill" to="#808080" begin="arrowUp.mouseover" end="arrowUp.mouseout"/>
                  </use>
                  <path fill="none" stroke="white" stroke-width="1.5" d="M0,-3.0v7 M-2.5,-0.5L0,-3.0L2.5,-0.5"/>
                </g>
                <g id="arrowRight" xlink:href="#dirArrow" transform="rotate(90) translate(36 -43)" onmousedown="handlePan(1,0)">
                  <use xlink:href="#rim" fill="#404040">
                        <set attributeName="fill" to="#808080" begin="arrowRight.mouseover" end="arrowRight.mouseout"/>
                  </use>
                  <path fill="none" stroke="white" stroke-width="1.5" d="M0,-3.0v7 M-2.5,-0.5L0,-3.0L2.5,-0.5"/>
                </g>
                <g id="arrowDown" xlink:href="#dirArrow" transform="rotate(180) translate(-30 -48)" onmousedown="handlePan(0,1)">
                  <use xlink:href="#rim" fill="#404040">
                        <set attributeName="fill" to="#808080" begin="arrowDown.mouseover" end="arrowDown.mouseout"/>
                  </use>
                  <path fill="none" stroke="white" stroke-width="1.5" d="M0,-3.0v7 M-2.5,-0.5L0,-3.0L2.5,-0.5"/>
                </g>
                <g id="arrowLeft" xlink:href="#dirArrow" transform="rotate(270) translate(-36 17)" onmousedown="handlePan(-1,0)">
                  <use xlink:href="#rim" fill="#404040">
                        <set attributeName="fill" to="#808080" begin="arrowLeft.mouseover" end="arrowLeft.mouseout"/>
                  </use>
                  <path fill="none" stroke="white" stroke-width="1.5" d="M0,-3.0v7 M-2.5,-0.5L0,-3.0L2.5,-0.5"/>
                </g>
        </g>
        <svg viewBox="0 0 15 15" width="100%" height="30px" preserveAspectRatio="xMaxYMin meet">
         <g id="arrow_out" transform="scale(0.3 0.3)">
          <a xlink:href="ft__putstring__fd_8c_acefce9ac519f8f8b7d3fde33dbafe469_icgraph_org.svg" target="_base">
           <rect id="button" ry="5" rx="5" y="6" x="6" height="38" width="38"
                fill="#f2f5e9" fill-opacity="0.5" stroke="#606060" stroke-width="1.0"/>
           <path id="arrow"
             d="M 11.500037,31.436501 C 11.940474,20.09759 22.043105,11.32322 32.158766,21.979434 L 37.068811,17.246167 C 37.068811,17.246167 37.088388,32 37.088388,32 L 22.160133,31.978069 C 22.160133,31.978069 26.997745,27.140456 26.997745,27.140456 C 18.528582,18.264221 13.291696,25.230495 11.500037,31.436501 z"
             style="fill:#404040;"/>
          </a>
         </g>
        </svg>
</svg>
