<?xml version="1.0" encoding="UTF-8" standalone="no"?>
<!DOCTYPE svg PUBLIC "-//W3C//DTD SVG 1.1//EN"
 "http://www.w3.org/Graphics/SVG/1.1/DTD/svg11.dtd">
<!-- Generated by graphviz version 8.0.2 (0)
 -->
<!-- Title: ft_strncmp Pages: 1 -->
<svg width="273pt" height="27pt"
 viewBox="0.00 0.00 273.00 27.00" xmlns="http://www.w3.org/2000/svg" xmlns:xlink="http://www.w3.org/1999/xlink">
<g id="graph0" class="graph" transform="scale(1 1) rotate(0) translate(4 23)">
<title>ft_strncmp</title>
<!-- Node1 -->
<g id="node1" class="node">
<title>Node1</title>
<g id="a_node1"><a xlink:title="Compare the first n bytes of two strings.">
<polygon fill="#999999" stroke="#666666" points="265,-19 202,-19 202,0 265,0 265,-19"/>
<text text-anchor="middle" x="233.5" y="-7" font-family="Helvetica,sans-Serif" font-size="10.00">ft_strncmp</text>
</a>
</g>
</g>
<!-- Node2 -->
<g id="node2" class="node">
<title>Node2</title>
<g id="a_node2"><a xlink:href="read__map_8c.html#a287e1eb420c186ddb3ca11b0d5b6cab4" target="_top" xlink:title="Checks if the given filename is valid and ends with &quot;.cub&quot;.">
<polygon fill="white" stroke="#666666" points="166,-19 74,-19 74,0 166,0 166,-19"/>
<text text-anchor="middle" x="120" y="-7" font-family="Helvetica,sans-Serif" font-size="10.00">filename_is_valid</text>
</a>
</g>
</g>
<!-- Node1&#45;&gt;Node2 -->
<g id="edge1" class="edge">
<title>Node1&#45;&gt;Node2</title>
<path fill="none" stroke="#63b8ff" d="M190.78,-9.5C182.79,-9.5 174.38,-9.5 166.28,-9.5"/>
<polygon fill="#63b8ff" stroke="#63b8ff" points="190.74,-13 200.74,-9.5 190.74,-6 190.74,-13"/>
</g>
<!-- Node3 -->
<g id="node3" class="node">
<title>Node3</title>
<g id="a_node3"><a xlink:href="main_8c.html#a3c04138a5bfe5d72780bb7e82a18e627" target="_top" xlink:title=" ">
<polygon fill="white" stroke="#666666" points="38,-19 0,-19 0,0 38,0 38,-19"/>
<text text-anchor="middle" x="19" y="-7" font-family="Helvetica,sans-Serif" font-size="10.00">main</text>
</a>
</g>
</g>
<!-- Node2&#45;&gt;Node3 -->
<g id="edge2" class="edge">
<title>Node2&#45;&gt;Node3</title>
<path fill="none" stroke="#63b8ff" d="M62.79,-9.5C54.02,-9.5 45.53,-9.5 38.47,-9.5"/>
<polygon fill="#63b8ff" stroke="#63b8ff" points="62.56,-13 72.56,-9.5 62.56,-6 62.56,-13"/>
</g>
</g>
</svg>
