<?xml version="1.0" encoding="UTF-8" standalone="no"?>
<!DOCTYPE svg PUBLIC "-//W3C//DTD SVG 1.1//EN"
 "http://www.w3.org/Graphics/SVG/1.1/DTD/svg11.dtd">
<!-- Generated by graphviz version 8.0.2 (0)
 -->
<!-- Title: ft_split Pages: 1 -->
<svg width="235pt" height="46pt"
 viewBox="0.00 0.00 235.00 46.00" xmlns="http://www.w3.org/2000/svg" xmlns:xlink="http://www.w3.org/1999/xlink">
<g id="graph0" class="graph" transform="scale(1 1) rotate(0) translate(4 42)">
<title>ft_split</title>
<!-- Node1 -->
<g id="node1" class="node">
<title>Node1</title>
<g id="a_node1"><a xlink:title="Splits a string into an array of strings based on a given delimiter.">
<polygon fill="#999999" stroke="#666666" points="46,-19 0,-19 0,0 46,0 46,-19"/>
<text text-anchor="middle" x="23" y="-7" font-family="Helvetica,sans-Serif" font-size="10.00">ft_split</text>
</a>
</g>
</g>
<!-- Node2 -->
<g id="node2" class="node">
<title>Node2</title>
<g id="a_node2"><a xlink:href="ft__strlcpy_8c.html#a12f759eb9793cf306fede66d0b7de0fc" target="_top" xlink:title="Copy a string to a destination buffer with a specified maximum size.">
<polygon fill="white" stroke="#666666" points="139,-38 82,-38 82,-19 139,-19 139,-38"/>
<text text-anchor="middle" x="110.5" y="-26" font-family="Helvetica,sans-Serif" font-size="10.00">ft_strlcpy</text>
</a>
</g>
</g>
<!-- Node1&#45;&gt;Node2 -->
<g id="edge1" class="edge">
<title>Node1&#45;&gt;Node2</title>
<path fill="none" stroke="#63b8ff" d="M46.46,-14.49C54.05,-16.18 62.74,-18.11 71.2,-19.99"/>
<polygon fill="#63b8ff" stroke="#63b8ff" points="70.16,-23.57 80.69,-22.32 71.68,-16.73 70.16,-23.57"/>
</g>
<!-- Node3 -->
<g id="node3" class="node">
<title>Node3</title>
<g id="a_node3"><a xlink:href="ft__strlen_8c.html#a828402378653640f545a4be2e00e92f9" target="_top" xlink:title="Calculates the length of a string.">
<polygon fill="white" stroke="#666666" points="227,-19 175,-19 175,0 227,0 227,-19"/>
<text text-anchor="middle" x="201" y="-7" font-family="Helvetica,sans-Serif" font-size="10.00">ft_strlen</text>
</a>
</g>
</g>
<!-- Node1&#45;&gt;Node3 -->
<g id="edge3" class="edge">
<title>Node1&#45;&gt;Node3</title>
<path fill="none" stroke="#63b8ff" d="M46.29,-9.5C75.92,-9.5 128.64,-9.5 163.96,-9.5"/>
<polygon fill="#63b8ff" stroke="#63b8ff" points="163.77,-13 173.77,-9.5 163.77,-6 163.77,-13"/>
</g>
<!-- Node2&#45;&gt;Node3 -->
<g id="edge2" class="edge">
<title>Node2&#45;&gt;Node3</title>
<path fill="none" stroke="#63b8ff" d="M139.02,-22.59C146.92,-20.9 155.66,-19.02 163.99,-17.23"/>
<polygon fill="#63b8ff" stroke="#63b8ff" points="164.57,-20.47 173.61,-14.95 163.1,-13.63 164.57,-20.47"/>
</g>
</g>
</svg>
