<?xml version="1.0" encoding="UTF-8" standalone="no"?>
<!DOCTYPE svg PUBLIC "-//W3C//DTD SVG 1.1//EN"
 "http://www.w3.org/Graphics/SVG/1.1/DTD/svg11.dtd">
<!-- Generated by graphviz version 8.0.2 (0)
 -->
<!-- Title: ft_strlcpy Pages: 1 -->
<svg width="334pt" height="27pt"
 viewBox="0.00 0.00 334.00 27.00" xmlns="http://www.w3.org/2000/svg" xmlns:xlink="http://www.w3.org/1999/xlink">
<g id="graph0" class="graph" transform="scale(1 1) rotate(0) translate(4 23)">
<title>ft_strlcpy</title>
<!-- Node1 -->
<g id="node1" class="node">
<title>Node1</title>
<g id="a_node1"><a xlink:title="Copy a string to a destination buffer with a specified maximum size.">
<polygon fill="#999999" stroke="#666666" points="326,-19 269,-19 269,0 326,0 326,-19"/>
<text text-anchor="middle" x="297.5" y="-7" font-family="Helvetica,sans-Serif" font-size="10.00">ft_strlcpy</text>
</a>
</g>
</g>
<!-- Node2 -->
<g id="node2" class="node">
<title>Node2</title>
<g id="a_node2"><a xlink:href="ft__split_8c.html#aa65c9de65051c8c589286cf133c4a1f4" target="_top" xlink:title="Splits a string into an array of strings based on a given delimiter.">
<polygon fill="white" stroke="#666666" points="233,-19 187,-19 187,0 233,0 233,-19"/>
<text text-anchor="middle" x="210" y="-7" font-family="Helvetica,sans-Serif" font-size="10.00">ft_split</text>
</a>
</g>
</g>
<!-- Node1&#45;&gt;Node2 -->
<g id="edge1" class="edge">
<title>Node1&#45;&gt;Node2</title>
<path fill="none" stroke="#63b8ff" d="M257.75,-9.5C249.4,-9.5 240.84,-9.5 233.37,-9.5"/>
<polygon fill="#63b8ff" stroke="#63b8ff" points="257.5,-13 267.5,-9.5 257.5,-6 257.5,-13"/>
</g>
<!-- Node3 -->
<g id="node3" class="node">
<title>Node3</title>
<g id="a_node3"><a xlink:href="draw__map__utils_8c.html#a3efc0a465ac3693c6748963564a7dc0e" target="_top" xlink:title="Initializes map data.">
<polygon fill="white" stroke="#666666" points="151,-19 74,-19 74,0 151,0 151,-19"/>
<text text-anchor="middle" x="112.5" y="-7" font-family="Helvetica,sans-Serif" font-size="10.00">init_map_data</text>
</a>
</g>
</g>
<!-- Node2&#45;&gt;Node3 -->
<g id="edge2" class="edge">
<title>Node2&#45;&gt;Node3</title>
<path fill="none" stroke="#63b8ff" d="M176.06,-9.5C168.06,-9.5 159.45,-9.5 151.24,-9.5"/>
<polygon fill="#63b8ff" stroke="#63b8ff" points="175.85,-13 185.85,-9.5 175.85,-6 175.85,-13"/>
</g>
<!-- Node4 -->
<g id="node4" class="node">
<title>Node4</title>
<g id="a_node4"><a xlink:href="main_8c.html#a3c04138a5bfe5d72780bb7e82a18e627" target="_top" xlink:title=" ">
<polygon fill="white" stroke="#666666" points="38,-19 0,-19 0,0 38,0 38,-19"/>
<text text-anchor="middle" x="19" y="-7" font-family="Helvetica,sans-Serif" font-size="10.00">main</text>
</a>
</g>
</g>
<!-- Node3&#45;&gt;Node4 -->
<g id="edge3" class="edge">
<title>Node3&#45;&gt;Node4</title>
<path fill="none" stroke="#63b8ff" d="M62.77,-9.5C54.08,-9.5 45.54,-9.5 38.4,-9.5"/>
<polygon fill="#63b8ff" stroke="#63b8ff" points="62.76,-13 72.76,-9.5 62.76,-6 62.76,-13"/>
</g>
</g>
</svg>
