<?xml version="1.0" encoding="UTF-8" standalone="no"?>
<!DOCTYPE svg PUBLIC "-//W3C//DTD SVG 1.1//EN"
 "http://www.w3.org/Graphics/SVG/1.1/DTD/svg11.dtd">
<!-- Generated by graphviz version 8.0.2 (0)
 -->
<!-- Title: ft_strlen Pages: 1 -->
<svg width="468pt" height="117pt"
 viewBox="0.00 0.00 468.00 117.28" xmlns="http://www.w3.org/2000/svg" xmlns:xlink="http://www.w3.org/1999/xlink">
<g id="graph0" class="graph" transform="scale(1 1) rotate(0) translate(4 113.28)">
<title>ft_strlen</title>
<!-- Node1 -->
<g id="node1" class="node">
<title>Node1</title>
<g id="a_node1"><a xlink:title="Calculates the length of a string.">
<polygon fill="#999999" stroke="#666666" points="460,-57.28 408,-57.28 408,-38.28 460,-38.28 460,-57.28"/>
<text text-anchor="middle" x="434" y="-45.28" font-family="Helvetica,sans-Serif" font-size="10.00">ft_strlen</text>
</a>
</g>
</g>
<!-- Node2 -->
<g id="node2" class="node">
<title>Node2</title>
<g id="a_node2"><a xlink:href="read__map_8c.html#a287e1eb420c186ddb3ca11b0d5b6cab4" target="_top" xlink:title="Checks if the given filename is valid and ends with &quot;.cub&quot;.">
<polygon fill="white" stroke="#666666" points="279,-109.28 187,-109.28 187,-90.28 279,-90.28 279,-109.28"/>
<text text-anchor="middle" x="233" y="-97.28" font-family="Helvetica,sans-Serif" font-size="10.00">filename_is_valid</text>
</a>
</g>
</g>
<!-- Node1&#45;&gt;Node2 -->
<g id="edge1" class="edge">
<title>Node1&#45;&gt;Node2</title>
<path fill="none" stroke="#63b8ff" d="M397.47,-57.07C362.12,-66.31 308.07,-80.43 271.91,-89.88"/>
<polygon fill="#63b8ff" stroke="#63b8ff" points="398.01,-60.28 406.8,-54.37 396.24,-53.51 398.01,-60.28"/>
</g>
<!-- Node4 -->
<g id="node4" class="node">
<title>Node4</title>
<g id="a_node4"><a xlink:href="ft__split_8c.html#aa65c9de65051c8c589286cf133c4a1f4" target="_top" xlink:title="Splits a string into an array of strings based on a given delimiter.">
<polygon fill="white" stroke="#666666" points="256,-47.28 210,-47.28 210,-28.28 256,-28.28 256,-47.28"/>
<text text-anchor="middle" x="233" y="-35.28" font-family="Helvetica,sans-Serif" font-size="10.00">ft_split</text>
</a>
</g>
</g>
<!-- Node1&#45;&gt;Node4 -->
<g id="edge3" class="edge">
<title>Node1&#45;&gt;Node4</title>
<path fill="none" stroke="#63b8ff" d="M396.85,-48.93C373.47,-49.39 342.41,-49.47 315,-47.78 295.06,-46.56 272.51,-43.65 256.28,-41.28"/>
<polygon fill="#63b8ff" stroke="#63b8ff" points="396.74,-52.41 406.65,-48.68 396.57,-45.41 396.74,-52.41"/>
</g>
<!-- Node5 -->
<g id="node5" class="node">
<title>Node5</title>
<g id="a_node5"><a xlink:href="draw__map__utils_8c.html#a3efc0a465ac3693c6748963564a7dc0e" target="_top" xlink:title="Initializes map data.">
<polygon fill="white" stroke="#666666" points="151,-47.28 74,-47.28 74,-28.28 151,-28.28 151,-47.28"/>
<text text-anchor="middle" x="112.5" y="-35.28" font-family="Helvetica,sans-Serif" font-size="10.00">init_map_data</text>
</a>
</g>
</g>
<!-- Node1&#45;&gt;Node5 -->
<g id="edge8" class="edge">
<title>Node1&#45;&gt;Node5</title>
<path fill="none" stroke="#63b8ff" d="M413.21,-31.49C401.89,-23.23 387,-14.07 372,-9.78 290.62,13.49 189.78,-12.35 141.64,-27.84"/>
<polygon fill="#63b8ff" stroke="#63b8ff" points="410.73,-34.76 420.8,-38.08 414.99,-29.21 410.73,-34.76"/>
</g>
<!-- Node6 -->
<g id="node6" class="node">
<title>Node6</title>
<g id="a_node6"><a xlink:href="ft__strlcpy_8c.html#a12f759eb9793cf306fede66d0b7de0fc" target="_top" xlink:title="Copy a string to a destination buffer with a specified maximum size.">
<polygon fill="white" stroke="#666666" points="372,-38.28 315,-38.28 315,-19.28 372,-19.28 372,-38.28"/>
<text text-anchor="middle" x="343.5" y="-26.28" font-family="Helvetica,sans-Serif" font-size="10.00">ft_strlcpy</text>
</a>
</g>
</g>
<!-- Node1&#45;&gt;Node6 -->
<g id="edge6" class="edge">
<title>Node1&#45;&gt;Node6</title>
<path fill="none" stroke="#63b8ff" d="M397.34,-40.13C389.07,-38.35 380.38,-36.49 372.49,-34.79"/>
<polygon fill="#63b8ff" stroke="#63b8ff" points="396.36,-43.71 406.88,-42.39 397.83,-36.87 396.36,-43.71"/>
</g>
<!-- Node3 -->
<g id="node3" class="node">
<title>Node3</title>
<g id="a_node3"><a xlink:href="main_8c.html#a3c04138a5bfe5d72780bb7e82a18e627" target="_top" xlink:title=" ">
<polygon fill="white" stroke="#666666" points="38,-66.28 0,-66.28 0,-47.28 38,-47.28 38,-66.28"/>
<text text-anchor="middle" x="19" y="-54.28" font-family="Helvetica,sans-Serif" font-size="10.00">main</text>
</a>
</g>
</g>
<!-- Node2&#45;&gt;Node3 -->
<g id="edge2" class="edge">
<title>Node2&#45;&gt;Node3</title>
<path fill="none" stroke="#63b8ff" d="M175.87,-88.4C130.2,-79.14 68.53,-66.63 38.28,-60.49"/>
<polygon fill="#63b8ff" stroke="#63b8ff" points="175.02,-92 185.52,-90.56 176.42,-85.14 175.02,-92"/>
</g>
<!-- Node4&#45;&gt;Node5 -->
<g id="edge4" class="edge">
<title>Node4&#45;&gt;Node5</title>
<path fill="none" stroke="#63b8ff" d="M198.96,-37.78C184.08,-37.78 166.44,-37.78 151.07,-37.78"/>
<polygon fill="#63b8ff" stroke="#63b8ff" points="198.71,-41.28 208.71,-37.78 198.71,-34.28 198.71,-41.28"/>
</g>
<!-- Node5&#45;&gt;Node3 -->
<g id="edge5" class="edge">
<title>Node5&#45;&gt;Node3</title>
<path fill="none" stroke="#63b8ff" d="M63.06,-47.84C54.27,-49.67 45.62,-51.46 38.4,-52.96"/>
<polygon fill="#63b8ff" stroke="#63b8ff" points="63.68,-51.08 72.76,-45.62 62.25,-44.23 63.68,-51.08"/>
</g>
<!-- Node6&#45;&gt;Node4 -->
<g id="edge7" class="edge">
<title>Node6&#45;&gt;Node4</title>
<path fill="none" stroke="#63b8ff" d="M303.92,-31.98C287.99,-33.31 270.08,-34.79 256.38,-35.93"/>
<polygon fill="#63b8ff" stroke="#63b8ff" points="303.88,-35.42 313.56,-31.1 303.3,-28.44 303.88,-35.42"/>
</g>
</g>
</svg>
