<?xml version="1.0" encoding="UTF-8" standalone="no"?>
<!DOCTYPE svg PUBLIC "-//W3C//DTD SVG 1.1//EN"
 "http://www.w3.org/Graphics/SVG/1.1/DTD/svg11.dtd">
<!-- Generated by graphviz version 8.0.2 (0)
 -->
<!-- Title: /home/ssergiu/projects/cub3d/include/libft/libft.h Pages: 1 -->
<!--zoomable 269 -->
<svg id="main" version="1.1" xmlns="http://www.w3.org/2000/svg" xmlns:xlink="http://www.w3.org/1999/xlink" xml:space="preserve" onload="init(evt)">
<style type="text/css"><![CDATA[
.edge:hover path { stroke: red; }
.edge:hover polygon { stroke: red; fill: red; }
]]></style>
<script type="text/javascript"><![CDATA[
var edges = document.getElementsByTagName('g');
if (edges && edges.length) {
  for (var i=0;i<edges.length;i++) {
    if (edges[i].id.substr(0,4)=='edge') {
      edges[i].setAttribute('class','edge');
    }
  }
}
]]></script>
        <defs>
                <circle id="rim" cx="0" cy="0" r="7"/>
                <circle id="rim2" cx="0" cy="0" r="3.5"/>
                <g id="zoomPlus">
                        <use xlink:href="#rim" fill="#404040">
                                <set attributeName="fill" to="#808080" begin="zoomplus.mouseover" end="zoomplus.mouseout"/>
                        </use>
                        <path d="M-4,0h8M0,-4v8" fill="none" stroke="white" stroke-width="1.5" pointer-events="none"/>
                </g>
                <g id="zoomMin">
                        <use xlink:href="#rim" fill="#404040">
                                <set attributeName="fill" to="#808080" begin="zoomminus.mouseover" end="zoomminus.mouseout"/>
                        </use>
                        <path d="M-4,0h8" fill="none" stroke="white" stroke-width="1.5" pointer-events="none"/>
                </g>
                <g id="dirArrow">
                        <path fill="none" stroke="white" stroke-width="1.5" d="M0,-3.0v7 M-2.5,-0.5L0,-3.0L2.5,-0.5"/>
                </g>
               <g id="resetDef">
                       <use xlink:href="#rim2" fill="#404040">
                               <set attributeName="fill" to="#808080" begin="reset.mouseover" end="reset.mouseout"/>
                       </use>
               </g>
        </defs>

<script type="text/javascript">
var viewWidth = 1074;
var viewHeight = 269;
var sectionId = 'dynsection-1';
</script>
<script xlink:href="svgpan.js"/>
<svg id="graph" class="graph">
<g id="viewport">
<title>/home/ssergiu/projects/cub3d/include/libft/libft.h</title>
<!-- Node1 -->
<g id="node1" class="node">
<title>Node1</title>
<g id="a_node1"><a xlink:title=" ">
<polygon fill="#999999" stroke="#666666" points="668.5,-261 543.5,-261 543.5,-231 668.5,-231 668.5,-261"/>
<text text-anchor="start" x="551.5" y="-249" font-family="Helvetica,sans-Serif" font-size="10.00">/home/ssergiu/projects</text>
<text text-anchor="middle" x="606" y="-238" font-family="Helvetica,sans-Serif" font-size="10.00">/cub3d/include/libft/libft.h</text>
</a>
</g>
</g>
<!-- Node2 -->
<g id="node2" class="node">
<title>Node2</title>
<g id="a_node2"><a xlink:href="cub3D_8h.html" target="_top" xlink:title=" ">
<polygon fill="white" stroke="#666666" points="395.5,-189.5 276.5,-189.5 276.5,-159.5 395.5,-159.5 395.5,-189.5"/>
<text text-anchor="start" x="284.5" y="-177.5" font-family="Helvetica,sans-Serif" font-size="10.00">/home/ssergiu/projects</text>
<text text-anchor="middle" x="336" y="-166.5" font-family="Helvetica,sans-Serif" font-size="10.00">/cub3d/include/cub3D.h</text>
</a>
</g>
</g>
<!-- Node1&#45;&gt;Node2 -->
<g id="edge1" class="edge">
<title>Node1&#45;&gt;Node2</title>
<path fill="none" stroke="#63b8ff" d="M535.03,-227.93C496.49,-218.51 448.05,-206.43 405,-195 398.98,-193.4 392.69,-191.68 386.45,-189.96"/>
<polygon fill="#63b8ff" stroke="#63b8ff" points="534.08,-231.54 544.62,-230.51 535.74,-224.74 534.08,-231.54"/>
</g>
<!-- Node3 -->
<g id="node3" class="node">
<title>Node3</title>
<g id="a_node3"><a xlink:href="map__utils_8h.html" target="_top" xlink:title=" ">
<polygon fill="white" stroke="#666666" points="310.5,-118 185.5,-118 185.5,-77 310.5,-77 310.5,-118"/>
<text text-anchor="start" x="193.5" y="-106" font-family="Helvetica,sans-Serif" font-size="10.00">/home/ssergiu/projects</text>
<text text-anchor="start" x="193.5" y="-95" font-family="Helvetica,sans-Serif" font-size="10.00">/cub3d/include/map_utils</text>
<text text-anchor="middle" x="248" y="-84" font-family="Helvetica,sans-Serif" font-size="10.00">/map_utils.h</text>
</a>
</g>
</g>
<!-- Node1&#45;&gt;Node3 -->
<g id="edge7" class="edge">
<title>Node1&#45;&gt;Node3</title>
<path fill="none" stroke="#63b8ff" d="M532.53,-243.79C444.45,-240.74 304.05,-230.31 267,-195 246.36,-175.33 244.56,-140.25 245.81,-118.25"/>
<polygon fill="#63b8ff" stroke="#63b8ff" points="532.16,-247.31 542.27,-244.13 532.38,-240.31 532.16,-247.31"/>
</g>
<!-- Node8 -->
<g id="node8" class="node">
<title>Node8</title>
<g id="a_node8"><a xlink:href="ft__putstring__fd_8c.html" target="_top" xlink:title=" ">
<polygon fill="white" stroke="#666666" points="530,-195 414,-195 414,-154 530,-154 530,-195"/>
<text text-anchor="start" x="422" y="-183" font-family="Helvetica,sans-Serif" font-size="10.00">/home/ssergiu/projects</text>
<text text-anchor="start" x="422" y="-172" font-family="Helvetica,sans-Serif" font-size="10.00">/cub3d/src/libft/src/ft</text>
<text text-anchor="middle" x="472" y="-161" font-family="Helvetica,sans-Serif" font-size="10.00">_putstring_fd.c</text>
</a>
</g>
</g>
<!-- Node1&#45;&gt;Node8 -->
<g id="edge8" class="edge">
<title>Node1&#45;&gt;Node8</title>
<path fill="none" stroke="#63b8ff" d="M568.57,-225.59C550.43,-216.18 528.67,-204.89 510.4,-195.42"/>
<polygon fill="#63b8ff" stroke="#63b8ff" points="566.75,-229.1 577.24,-230.6 569.97,-222.89 566.75,-229.1"/>
</g>
<!-- Node9 -->
<g id="node9" class="node">
<title>Node9</title>
<g id="a_node9"><a xlink:href="ft__split_8c.html" target="_top" xlink:title=" ">
<polygon fill="white" stroke="#666666" points="664,-195 548,-195 548,-154 664,-154 664,-195"/>
<text text-anchor="start" x="556" y="-183" font-family="Helvetica,sans-Serif" font-size="10.00">/home/ssergiu/projects</text>
<text text-anchor="start" x="556" y="-172" font-family="Helvetica,sans-Serif" font-size="10.00">/cub3d/src/libft/src/ft</text>
<text text-anchor="middle" x="606" y="-161" font-family="Helvetica,sans-Serif" font-size="10.00">_split.c</text>
</a>
</g>
</g>
<!-- Node1&#45;&gt;Node9 -->
<g id="edge9" class="edge">
<title>Node1&#45;&gt;Node9</title>
<path fill="none" stroke="#63b8ff" d="M606,-219.64C606,-211.66 606,-202.96 606,-195.42"/>
<polygon fill="#63b8ff" stroke="#63b8ff" points="602.5,-219.6 606,-229.6 609.5,-219.6 602.5,-219.6"/>
</g>
<!-- Node10 -->
<g id="node10" class="node">
<title>Node10</title>
<g id="a_node10"><a xlink:href="ft__strlcpy_8c.html" target="_top" xlink:title=" ">
<polygon fill="white" stroke="#666666" points="798,-195 682,-195 682,-154 798,-154 798,-195"/>
<text text-anchor="start" x="690" y="-183" font-family="Helvetica,sans-Serif" font-size="10.00">/home/ssergiu/projects</text>
<text text-anchor="start" x="690" y="-172" font-family="Helvetica,sans-Serif" font-size="10.00">/cub3d/src/libft/src/ft</text>
<text text-anchor="middle" x="740" y="-161" font-family="Helvetica,sans-Serif" font-size="10.00">_strlcpy.c</text>
</a>
</g>
</g>
<!-- Node1&#45;&gt;Node10 -->
<g id="edge10" class="edge">
<title>Node1&#45;&gt;Node10</title>
<path fill="none" stroke="#63b8ff" d="M643.43,-225.59C661.57,-216.18 683.33,-204.89 701.6,-195.42"/>
<polygon fill="#63b8ff" stroke="#63b8ff" points="642.03,-222.89 634.76,-230.6 645.25,-229.1 642.03,-222.89"/>
</g>
<!-- Node11 -->
<g id="node11" class="node">
<title>Node11</title>
<g id="a_node11"><a xlink:href="ft__strlen_8c.html" target="_top" xlink:title=" ">
<polygon fill="white" stroke="#666666" points="932,-195 816,-195 816,-154 932,-154 932,-195"/>
<text text-anchor="start" x="824" y="-183" font-family="Helvetica,sans-Serif" font-size="10.00">/home/ssergiu/projects</text>
<text text-anchor="start" x="824" y="-172" font-family="Helvetica,sans-Serif" font-size="10.00">/cub3d/src/libft/src/ft</text>
<text text-anchor="middle" x="874" y="-161" font-family="Helvetica,sans-Serif" font-size="10.00">_strlen.c</text>
</a>
</g>
</g>
<!-- Node1&#45;&gt;Node11 -->
<g id="edge11" class="edge">
<title>Node1&#45;&gt;Node11</title>
<path fill="none" stroke="#63b8ff" d="M677.43,-227.96C715.92,-218.59 764.16,-206.56 807,-195 809.81,-194.24 812.68,-193.46 815.57,-192.65"/>
<polygon fill="#63b8ff" stroke="#63b8ff" points="676.74,-224.76 667.85,-230.52 678.4,-231.57 676.74,-224.76"/>
</g>
<!-- Node12 -->
<g id="node12" class="node">
<title>Node12</title>
<g id="a_node12"><a xlink:href="ft__strncmp_8c.html" target="_top" xlink:title=" ">
<polygon fill="white" stroke="#666666" points="1066,-195 950,-195 950,-154 1066,-154 1066,-195"/>
<text text-anchor="start" x="958" y="-183" font-family="Helvetica,sans-Serif" font-size="10.00">/home/ssergiu/projects</text>
<text text-anchor="start" x="958" y="-172" font-family="Helvetica,sans-Serif" font-size="10.00">/cub3d/src/libft/src/ft</text>
<text text-anchor="middle" x="1008" y="-161" font-family="Helvetica,sans-Serif" font-size="10.00">_strncmp.c</text>
</a>
</g>
</g>
<!-- Node1&#45;&gt;Node12 -->
<g id="edge12" class="edge">
<title>Node1&#45;&gt;Node12</title>
<path fill="none" stroke="#63b8ff" d="M679.45,-236.93C747.67,-228.76 851.85,-214.53 941,-195 943.84,-194.38 946.74,-193.7 949.65,-192.98"/>
<polygon fill="#63b8ff" stroke="#63b8ff" points="679.34,-233.54 669.82,-238.19 680.16,-240.49 679.34,-233.54"/>
</g>
<!-- Node2&#45;&gt;Node3 -->
<g id="edge2" class="edge">
<title>Node2&#45;&gt;Node3</title>
<path fill="none" stroke="#63b8ff" d="M310.86,-152.08C298.4,-141.45 283.43,-128.7 271.24,-118.3"/>
<polygon fill="#63b8ff" stroke="#63b8ff" points="308.15,-155.22 318.03,-159.04 312.69,-149.89 308.15,-155.22"/>
</g>
<!-- Node7 -->
<g id="node7" class="node">
<title>Node7</title>
<g id="a_node7"><a xlink:href="main_8c.html" target="_top" xlink:title=" ">
<polygon fill="white" stroke="#666666" points="445,-112.5 329,-112.5 329,-82.5 445,-82.5 445,-112.5"/>
<text text-anchor="start" x="337" y="-100.5" font-family="Helvetica,sans-Serif" font-size="10.00">/home/ssergiu/projects</text>
<text text-anchor="middle" x="387" y="-89.5" font-family="Helvetica,sans-Serif" font-size="10.00">/cub3d/src/main.c</text>
</a>
</g>
</g>
<!-- Node2&#45;&gt;Node7 -->
<g id="edge6" class="edge">
<title>Node2&#45;&gt;Node7</title>
<path fill="none" stroke="#63b8ff" d="M351.79,-150.27C360.09,-138.07 370.01,-123.49 377.2,-112.92"/>
<polygon fill="#63b8ff" stroke="#63b8ff" points="348.56,-147.8 345.83,-158.04 354.35,-151.74 348.56,-147.8"/>
</g>
<!-- Node4 -->
<g id="node4" class="node">
<title>Node4</title>
<g id="a_node4"><a xlink:href="draw__map_8c.html" target="_top" xlink:title=" ">
<polygon fill="white" stroke="#666666" points="164,-35.5 0,-35.5 0,-5.5 164,-5.5 164,-35.5"/>
<text text-anchor="start" x="8" y="-23.5" font-family="Helvetica,sans-Serif" font-size="10.00">/home/ssergiu/projects</text>
<text text-anchor="middle" x="82" y="-12.5" font-family="Helvetica,sans-Serif" font-size="10.00">/cub3d/src/map_utils/draw_map.c</text>
</a>
</g>
</g>
<!-- Node3&#45;&gt;Node4 -->
<g id="edge3" class="edge">
<title>Node3&#45;&gt;Node4</title>
<path fill="none" stroke="#63b8ff" d="M194.05,-72.12C167.56,-60.16 136.55,-46.15 113.88,-35.9"/>
<polygon fill="#63b8ff" stroke="#63b8ff" points="192.4,-75.67 202.95,-76.6 195.28,-69.29 192.4,-75.67"/>
</g>
<!-- Node5 -->
<g id="node5" class="node">
<title>Node5</title>
<g id="a_node5"><a xlink:href="draw__map__utils_8c.html" target="_top" xlink:title=" ">
<polygon fill="white" stroke="#666666" points="313.5,-41 182.5,-41 182.5,0 313.5,0 313.5,-41"/>
<text text-anchor="start" x="190.5" y="-29" font-family="Helvetica,sans-Serif" font-size="10.00">/home/ssergiu/projects</text>
<text text-anchor="start" x="190.5" y="-18" font-family="Helvetica,sans-Serif" font-size="10.00">/cub3d/src/map_utils/draw</text>
<text text-anchor="middle" x="248" y="-7" font-family="Helvetica,sans-Serif" font-size="10.00">_map_utils.c</text>
</a>
</g>
</g>
<!-- Node3&#45;&gt;Node5 -->
<g id="edge4" class="edge">
<title>Node3&#45;&gt;Node5</title>
<path fill="none" stroke="#63b8ff" d="M248,-65.93C248,-57.63 248,-48.87 248,-41.33"/>
<polygon fill="#63b8ff" stroke="#63b8ff" points="244.5,-65.79 248,-75.79 251.5,-65.79 244.5,-65.79"/>
</g>
<!-- Node6 -->
<g id="node6" class="node">
<title>Node6</title>
<g id="a_node6"><a xlink:href="read__map_8c.html" target="_top" xlink:title=" ">
<polygon fill="white" stroke="#666666" points="492.5,-35.5 331.5,-35.5 331.5,-5.5 492.5,-5.5 492.5,-35.5"/>
<text text-anchor="start" x="339.5" y="-23.5" font-family="Helvetica,sans-Serif" font-size="10.00">/home/ssergiu/projects</text>
<text text-anchor="middle" x="412" y="-12.5" font-family="Helvetica,sans-Serif" font-size="10.00">/cub3d/src/map_utils/read_map.c</text>
</a>
</g>
</g>
<!-- Node3&#45;&gt;Node6 -->
<g id="edge5" class="edge">
<title>Node3&#45;&gt;Node6</title>
<path fill="none" stroke="#63b8ff" d="M301.3,-72.12C327.47,-60.16 358.11,-46.15 380.5,-35.9"/>
<polygon fill="#63b8ff" stroke="#63b8ff" points="300.16,-69.26 292.52,-76.6 303.07,-75.62 300.16,-69.26"/>
</g>
</g>
</svg>
        <g id="navigator" transform="translate(0 0)" fill="#404254">
                <rect fill="#f2f5e9" fill-opacity="0.5" stroke="#606060" stroke-width=".5" x="0" y="0" width="60" height="60"/>
                <use id="zoomplus" xlink:href="#zoomPlus" x="17" y="9" onmousedown="handleZoom(evt,'in')"/>
                <use id="zoomminus" xlink:href="#zoomMin" x="42" y="9" onmousedown="handleZoom(evt,'out')"/>
                <use id="reset" xlink:href="#resetDef" x="30" y="36" onmousedown="handleReset()"/>
                <g id="arrowUp" xlink:href="#dirArrow" transform="translate(30 24)" onmousedown="handlePan(0,-1)">
                  <use xlink:href="#rim" fill="#404040">
                        <set attributeName="fill" to="#808080" begin="arrowUp.mouseover" end="arrowUp.mouseout"/>
                  </use>
                  <path fill="none" stroke="white" stroke-width="1.5" d="M0,-3.0v7 M-2.5,-0.5L0,-3.0L2.5,-0.5"/>
                </g>
                <g id="arrowRight" xlink:href="#dirArrow" transform="rotate(90) translate(36 -43)" onmousedown="handlePan(1,0)">
                  <use xlink:href="#rim" fill="#404040">
                        <set attributeName="fill" to="#808080" begin="arrowRight.mouseover" end="arrowRight.mouseout"/>
                  </use>
                  <path fill="none" stroke="white" stroke-width="1.5" d="M0,-3.0v7 M-2.5,-0.5L0,-3.0L2.5,-0.5"/>
                </g>
                <g id="arrowDown" xlink:href="#dirArrow" transform="rotate(180) translate(-30 -48)" onmousedown="handlePan(0,1)">
                  <use xlink:href="#rim" fill="#404040">
                        <set attributeName="fill" to="#808080" begin="arrowDown.mouseover" end="arrowDown.mouseout"/>
                  </use>
                  <path fill="none" stroke="white" stroke-width="1.5" d="M0,-3.0v7 M-2.5,-0.5L0,-3.0L2.5,-0.5"/>
                </g>
                <g id="arrowLeft" xlink:href="#dirArrow" transform="rotate(270) translate(-36 17)" onmousedown="handlePan(-1,0)">
                  <use xlink:href="#rim" fill="#404040">
                        <set attributeName="fill" to="#808080" begin="arrowLeft.mouseover" end="arrowLeft.mouseout"/>
                  </use>
                  <path fill="none" stroke="white" stroke-width="1.5" d="M0,-3.0v7 M-2.5,-0.5L0,-3.0L2.5,-0.5"/>
                </g>
        </g>
        <svg viewBox="0 0 15 15" width="100%" height="30px" preserveAspectRatio="xMaxYMin meet">
         <g id="arrow_out" transform="scale(0.3 0.3)">
          <a xlink:href="libft_8h__dep__incl_org.svg" target="_base">
           <rect id="button" ry="5" rx="5" y="6" x="6" height="38" width="38"
                fill="#f2f5e9" fill-opacity="0.5" stroke="#606060" stroke-width="1.0"/>
           <path id="arrow"
             d="M 11.500037,31.436501 C 11.940474,20.09759 22.043105,11.32322 32.158766,21.979434 L 37.068811,17.246167 C 37.068811,17.246167 37.088388,32 37.088388,32 L 22.160133,31.978069 C 22.160133,31.978069 26.997745,27.140456 26.997745,27.140456 C 18.528582,18.264221 13.291696,25.230495 11.500037,31.436501 z"
             style="fill:#404040;"/>
          </a>
         </g>
        </svg>
</svg>
