<?xml version="1.0" encoding="UTF-8" standalone="no"?>
<!DOCTYPE svg PUBLIC "-//W3C//DTD SVG 1.1//EN"
 "http://www.w3.org/Graphics/SVG/1.1/DTD/svg11.dtd">
<!-- Generated by graphviz version 8.0.2 (0)
 -->
<!-- Title: main Pages: 1 -->
<svg width="731pt" height="387pt"
 viewBox="0.00 0.00 731.00 387.00" xmlns="http://www.w3.org/2000/svg" xmlns:xlink="http://www.w3.org/1999/xlink">
<g id="graph0" class="graph" transform="scale(1 1) rotate(0) translate(4 383)">
<title>main</title>
<!-- Node1 -->
<g id="node1" class="node">
<title>Node1</title>
<g id="a_node1"><a xlink:title=" ">
<polygon fill="#999999" stroke="#666666" points="38,-341 0,-341 0,-322 38,-322 38,-341"/>
<text text-anchor="middle" x="19" y="-329" font-family="Helvetica,sans-Serif" font-size="10.00">main</text>
</a>
</g>
</g>
<!-- Node2 -->
<g id="node2" class="node">
<title>Node2</title>
<g id="a_node2"><a xlink:href="draw__map__utils_8c.html#ac0e0d1411c5e6e51f7bb4b854217d40c" target="_top" xlink:title="Destroys map data.">
<polygon fill="white" stroke="#666666" points="171,-379 74,-379 74,-360 171,-360 171,-379"/>
<text text-anchor="middle" x="122.5" y="-367" font-family="Helvetica,sans-Serif" font-size="10.00">destroy_map_data</text>
</a>
</g>
</g>
<!-- Node1&#45;&gt;Node2 -->
<g id="edge1" class="edge">
<title>Node1&#45;&gt;Node2</title>
<path fill="none" stroke="#63b8ff" d="M38.15,-338.29C51.15,-343.16 69.11,-349.88 85.02,-355.84"/>
<polygon fill="#63b8ff" stroke="#63b8ff" points="83.52,-359.39 94.12,-359.62 85.98,-352.84 83.52,-359.39"/>
</g>
<!-- Node4 -->
<g id="node4" class="node">
<title>Node4</title>
<g id="a_node4"><a xlink:href="read__map_8c.html#a287e1eb420c186ddb3ca11b0d5b6cab4" target="_top" xlink:title="Checks if the given filename is valid and ends with &quot;.cub&quot;.">
<polygon fill="white" stroke="#666666" points="397,-360 305,-360 305,-341 397,-341 397,-360"/>
<text text-anchor="middle" x="351" y="-348" font-family="Helvetica,sans-Serif" font-size="10.00">filename_is_valid</text>
</a>
</g>
</g>
<!-- Node1&#45;&gt;Node4 -->
<g id="edge3" class="edge">
<title>Node1&#45;&gt;Node4</title>
<path fill="none" stroke="#63b8ff" d="M38.21,-332.55C86.25,-335.31 217.9,-342.89 293.89,-347.27"/>
<polygon fill="#63b8ff" stroke="#63b8ff" points="293.5,-350.81 303.68,-347.89 293.9,-343.82 293.5,-350.81"/>
</g>
<!-- Node10 -->
<g id="node10" class="node">
<title>Node10</title>
<g id="a_node10"><a xlink:href="draw__map__utils_8c.html#a3efc0a465ac3693c6748963564a7dc0e" target="_top" xlink:title="Initializes map data.">
<polygon fill="white" stroke="#666666" points="161,-209 84,-209 84,-190 161,-190 161,-209"/>
<text text-anchor="middle" x="122.5" y="-197" font-family="Helvetica,sans-Serif" font-size="10.00">init_map_data</text>
</a>
</g>
</g>
<!-- Node1&#45;&gt;Node10 -->
<g id="edge9" class="edge">
<title>Node1&#45;&gt;Node10</title>
<path fill="none" stroke="#63b8ff" d="M27.63,-321.58C44.61,-299.49 85.75,-246 107.49,-217.72"/>
<polygon fill="#63b8ff" stroke="#63b8ff" points="110.74,-220.24 114.06,-210.18 105.19,-215.97 110.74,-220.24"/>
</g>
<!-- Node3 -->
<g id="node3" class="node">
<title>Node3</title>
<g id="a_node3"><a xlink:href="draw__map__utils_8c.html#a73200bd9a8be60a2e2f5eb2528293a8f" target="_top" xlink:title="Frees memory allocated for a string array.">
<polygon fill="white" stroke="#666666" points="266,-379 210,-379 210,-360 266,-360 266,-379"/>
<text text-anchor="middle" x="238" y="-367" font-family="Helvetica,sans-Serif" font-size="10.00">free_split</text>
</a>
</g>
</g>
<!-- Node2&#45;&gt;Node3 -->
<g id="edge2" class="edge">
<title>Node2&#45;&gt;Node3</title>
<path fill="none" stroke="#63b8ff" d="M171.31,-369.5C180.51,-369.5 190.03,-369.5 198.87,-369.5"/>
<polygon fill="#63b8ff" stroke="#63b8ff" points="198.64,-373 208.64,-369.5 198.64,-366 198.64,-373"/>
</g>
<!-- Node5 -->
<g id="node5" class="node">
<title>Node5</title>
<g id="a_node5"><a xlink:href="ft__strlen_8c.html#a828402378653640f545a4be2e00e92f9" target="_top" xlink:title="Calculates the length of a string.">
<polygon fill="white" stroke="#666666" points="505,-304 453,-304 453,-285 505,-285 505,-304"/>
<text text-anchor="middle" x="479" y="-292" font-family="Helvetica,sans-Serif" font-size="10.00">ft_strlen</text>
</a>
</g>
</g>
<!-- Node4&#45;&gt;Node5 -->
<g id="edge4" class="edge">
<title>Node4&#45;&gt;Node5</title>
<path fill="none" stroke="#63b8ff" d="M377.34,-340.67C383.78,-338.08 390.67,-335.25 397,-332.5 414.02,-325.11 432.79,-316.35 447.97,-309.1"/>
<polygon fill="#63b8ff" stroke="#63b8ff" points="449.34,-311.84 456.84,-304.36 446.31,-305.53 449.34,-311.84"/>
</g>
<!-- Node6 -->
<g id="node6" class="node">
<title>Node6</title>
<g id="a_node6"><a xlink:href="ft__strncmp_8c.html#a9d2fe792187aa4ed08e5864fb2c4d6dc" target="_top" xlink:title="Compare the first n bytes of two strings.">
<polygon fill="white" stroke="#666666" points="510.5,-360 447.5,-360 447.5,-341 510.5,-341 510.5,-360"/>
<text text-anchor="middle" x="479" y="-348" font-family="Helvetica,sans-Serif" font-size="10.00">ft_strncmp</text>
</a>
</g>
</g>
<!-- Node4&#45;&gt;Node6 -->
<g id="edge5" class="edge">
<title>Node4&#45;&gt;Node6</title>
<path fill="none" stroke="#63b8ff" d="M397.49,-350.5C410.12,-350.5 423.77,-350.5 436.17,-350.5"/>
<polygon fill="#63b8ff" stroke="#63b8ff" points="436.16,-354 446.16,-350.5 436.16,-347 436.16,-354"/>
</g>
<!-- Node7 -->
<g id="node7" class="node">
<title>Node7</title>
<g id="a_node7"><a xlink:href="read__map_8c.html#af11ad10198633d526882d9ebabf21042" target="_top" xlink:title="Handles the given error number, prints an error message to the standard error output,...">
<polygon fill="white" stroke="#666666" points="514,-171 444,-171 444,-152 514,-152 514,-171"/>
<text text-anchor="middle" x="479" y="-159" font-family="Helvetica,sans-Serif" font-size="10.00">handle_error</text>
</a>
</g>
</g>
<!-- Node4&#45;&gt;Node7 -->
<g id="edge6" class="edge">
<title>Node4&#45;&gt;Node7</title>
<path fill="none" stroke="#63b8ff" d="M385.2,-340.62C389.48,-338.4 393.57,-335.73 397,-332.5 420.47,-310.44 455.51,-221.83 470.63,-181.58"/>
<polygon fill="#63b8ff" stroke="#63b8ff" points="474.21,-182.99 474.41,-172.39 467.65,-180.55 474.21,-182.99"/>
</g>
<!-- Node8 -->
<g id="node8" class="node">
<title>Node8</title>
<g id="a_node8"><a xlink:href="read__map_8c.html#af5c60b16fc036394aa182bd09cc16e5d" target="_top" xlink:title="Prints an error message to the standard error output.">
<polygon fill="white" stroke="#666666" points="621,-133 561,-133 561,-114 621,-114 621,-133"/>
<text text-anchor="middle" x="591" y="-121" font-family="Helvetica,sans-Serif" font-size="10.00">print_error</text>
</a>
</g>
</g>
<!-- Node7&#45;&gt;Node8 -->
<g id="edge7" class="edge">
<title>Node7&#45;&gt;Node8</title>
<path fill="none" stroke="#63b8ff" d="M508.9,-151.52C521.79,-147.07 537.16,-141.75 551.04,-136.96"/>
<polygon fill="#63b8ff" stroke="#63b8ff" points="551.98,-139.99 560.29,-133.42 549.7,-133.37 551.98,-139.99"/>
</g>
<!-- Node9 -->
<g id="node9" class="node">
<title>Node9</title>
<g id="a_node9"><a xlink:href="ft__putstring__fd_8c.html#acefce9ac519f8f8b7d3fde33dbafe469" target="_top" xlink:title=" ">
<polygon fill="white" stroke="#666666" points="723,-133 657,-133 657,-114 723,-114 723,-133"/>
<text text-anchor="middle" x="690" y="-121" font-family="Helvetica,sans-Serif" font-size="10.00">ft_putstr_fd</text>
</a>
</g>
</g>
<!-- Node8&#45;&gt;Node9 -->
<g id="edge8" class="edge">
<title>Node8&#45;&gt;Node9</title>
<path fill="none" stroke="#63b8ff" d="M621.37,-123.5C629.12,-123.5 637.65,-123.5 645.97,-123.5"/>
<polygon fill="#63b8ff" stroke="#63b8ff" points="645.69,-127 655.69,-123.5 645.69,-120 645.69,-127"/>
</g>
<!-- Node10&#45;&gt;Node5 -->
<g id="edge16" class="edge">
<title>Node10&#45;&gt;Node5</title>
<path fill="none" stroke="#63b8ff" d="M160.77,-209.49C229.3,-227.85 374.5,-266.76 442.04,-284.86"/>
<polygon fill="#63b8ff" stroke="#63b8ff" points="441.01,-288.48 451.58,-287.69 442.82,-281.72 441.01,-288.48"/>
</g>
<!-- Node10&#45;&gt;Node7 -->
<g id="edge18" class="edge">
<title>Node10&#45;&gt;Node7</title>
<path fill="none" stroke="#63b8ff" d="M161.44,-195.43C227.31,-188.37 362.51,-173.88 433.01,-166.32"/>
<polygon fill="#63b8ff" stroke="#63b8ff" points="433.17,-169.72 442.74,-165.17 432.43,-162.76 433.17,-169.72"/>
</g>
<!-- Node11 -->
<g id="node11" class="node">
<title>Node11</title>
<g id="a_node11"><a xlink:href="read__map_8c.html#aabc8b9c956e025066b300e71e80f2590" target="_top" xlink:title="Frees any allocated memory and exits the program with the given error number.">
<polygon fill="white" stroke="#666666" points="525,-114 433,-114 433,-95 525,-95 525,-114"/>
<text text-anchor="middle" x="479" y="-102" font-family="Helvetica,sans-Serif" font-size="10.00">cleanup_and_exit</text>
</a>
</g>
</g>
<!-- Node10&#45;&gt;Node11 -->
<g id="edge10" class="edge">
<title>Node10&#45;&gt;Node11</title>
<path fill="none" stroke="#63b8ff" d="M131.73,-189.64C145.64,-173.57 175.4,-141.69 207,-123.5 281.15,-80.81 311.67,-86.21 397,-92.5 405.08,-93.1 413.58,-94.02 421.92,-95.1"/>
<polygon fill="#63b8ff" stroke="#63b8ff" points="421.34,-98.69 431.72,-96.59 422.29,-91.76 421.34,-98.69"/>
</g>
<!-- Node12 -->
<g id="node12" class="node">
<title>Node12</title>
<g id="a_node12"><a xlink:href="ft__split_8c.html#aa65c9de65051c8c589286cf133c4a1f4" target="_top" xlink:title="Splits a string into an array of strings based on a given delimiter.">
<polygon fill="white" stroke="#666666" points="261,-285 215,-285 215,-266 261,-266 261,-285"/>
<text text-anchor="middle" x="238" y="-273" font-family="Helvetica,sans-Serif" font-size="10.00">ft_split</text>
</a>
</g>
</g>
<!-- Node10&#45;&gt;Node12 -->
<g id="edge12" class="edge">
<title>Node10&#45;&gt;Node12</title>
<path fill="none" stroke="#63b8ff" d="M138.34,-209.44C157.37,-222.18 190.62,-244.44 213.2,-259.57"/>
<polygon fill="#63b8ff" stroke="#63b8ff" points="210.9,-262.91 221.16,-265.56 214.8,-257.09 210.9,-262.91"/>
</g>
<!-- Node14 -->
<g id="node14" class="node">
<title>Node14</title>
<g id="a_node14"><a xlink:href="draw__map__utils_8c.html#ad624da07f82233cb9bf10960641f9fec" target="_top" xlink:title="Gets the height of a map.">
<polygon fill="white" stroke="#666666" points="269,-19 207,-19 207,0 269,0 269,-19"/>
<text text-anchor="middle" x="238" y="-7" font-family="Helvetica,sans-Serif" font-size="10.00">get_height</text>
</a>
</g>
</g>
<!-- Node10&#45;&gt;Node14 -->
<g id="edge17" class="edge">
<title>Node10&#45;&gt;Node14</title>
<path fill="none" stroke="#63b8ff" d="M126.75,-189.68C136.03,-162.64 164.75,-85.63 207,-33.5 209.01,-31.02 211.31,-28.63 213.73,-26.39"/>
<polygon fill="#63b8ff" stroke="#63b8ff" points="215.71,-28.46 221.14,-19.37 211.22,-23.09 215.71,-28.46"/>
</g>
<!-- Node15 -->
<g id="node15" class="node">
<title>Node15</title>
<g id="a_node15"><a xlink:href="read__map_8c.html#a4262bf4509b96716171e25f0f9f0644e" target="_top" xlink:title="Reads the contents of the file with the given name into a dynamically allocated buffer.">
<polygon fill="white" stroke="#666666" points="267.5,-152 208.5,-152 208.5,-133 267.5,-133 267.5,-152"/>
<text text-anchor="middle" x="238" y="-140" font-family="Helvetica,sans-Serif" font-size="10.00">read_map</text>
</a>
</g>
</g>
<!-- Node10&#45;&gt;Node15 -->
<g id="edge19" class="edge">
<title>Node10&#45;&gt;Node15</title>
<path fill="none" stroke="#63b8ff" d="M143.27,-189.57C161.09,-180.62 187.53,-167.34 207.79,-157.17"/>
<polygon fill="#63b8ff" stroke="#63b8ff" points="209.09,-159.93 216.46,-152.31 205.95,-153.68 209.09,-159.93"/>
</g>
<!-- Node11&#45;&gt;Node8 -->
<g id="edge11" class="edge">
<title>Node11&#45;&gt;Node8</title>
<path fill="none" stroke="#63b8ff" d="M525.38,-112.34C533.6,-113.76 542.11,-115.23 550.16,-116.62"/>
<polygon fill="#63b8ff" stroke="#63b8ff" points="549.31,-120.2 559.76,-118.45 550.51,-113.3 549.31,-120.2"/>
</g>
<!-- Node12&#45;&gt;Node5 -->
<g id="edge15" class="edge">
<title>Node12&#45;&gt;Node5</title>
<path fill="none" stroke="#63b8ff" d="M261.48,-277.29C302.88,-280.58 391.49,-287.62 441.57,-291.6"/>
<polygon fill="#63b8ff" stroke="#63b8ff" points="441.29,-295.17 451.54,-292.48 441.84,-288.19 441.29,-295.17"/>
</g>
<!-- Node13 -->
<g id="node13" class="node">
<title>Node13</title>
<g id="a_node13"><a xlink:href="ft__strlcpy_8c.html#a12f759eb9793cf306fede66d0b7de0fc" target="_top" xlink:title="Copy a string to a destination buffer with a specified maximum size.">
<polygon fill="white" stroke="#666666" points="379.5,-323 322.5,-323 322.5,-304 379.5,-304 379.5,-323"/>
<text text-anchor="middle" x="351" y="-311" font-family="Helvetica,sans-Serif" font-size="10.00">ft_strlcpy</text>
</a>
</g>
</g>
<!-- Node12&#45;&gt;Node13 -->
<g id="edge13" class="edge">
<title>Node12&#45;&gt;Node13</title>
<path fill="none" stroke="#63b8ff" d="M261.46,-283.19C275.94,-288.15 295.14,-294.72 311.95,-300.48"/>
<polygon fill="#63b8ff" stroke="#63b8ff" points="310.46,-304 321.05,-303.93 312.73,-297.38 310.46,-304"/>
</g>
<!-- Node13&#45;&gt;Node5 -->
<g id="edge14" class="edge">
<title>Node13&#45;&gt;Node5</title>
<path fill="none" stroke="#63b8ff" d="M379.96,-309.28C398.23,-306.53 422.26,-302.91 441.96,-299.94"/>
<polygon fill="#63b8ff" stroke="#63b8ff" points="442.32,-303.27 451.68,-298.32 441.27,-296.35 442.32,-303.27"/>
</g>
<!-- Node15&#45;&gt;Node7 -->
<g id="edge24" class="edge">
<title>Node15&#45;&gt;Node7</title>
<path fill="none" stroke="#63b8ff" d="M267.83,-144.79C308.83,-148.05 384.39,-154.06 432.86,-157.91"/>
<polygon fill="#63b8ff" stroke="#63b8ff" points="432.42,-161.47 442.67,-158.77 432.97,-154.49 432.42,-161.47"/>
</g>
<!-- Node15&#45;&gt;Node11 -->
<g id="edge20" class="edge">
<title>Node15&#45;&gt;Node11</title>
<path fill="none" stroke="#63b8ff" d="M251.26,-132.78C263.89,-123.44 284.56,-109.96 305,-104.5 343.1,-94.32 387.62,-94.58 421.96,-97.25"/>
<polygon fill="#63b8ff" stroke="#63b8ff" points="421.46,-100.81 431.73,-98.19 422.07,-93.83 421.46,-100.81"/>
</g>
<!-- Node16 -->
<g id="node16" class="node">
<title>Node16</title>
<g id="a_node16"><a xlink:href="read__map_8c.html#a973f5273453bacdf37c27ef24bdd540d" target="_top" xlink:title="Returns the total number of bytes in the file with the given filename.">
<polygon fill="white" stroke="#666666" points="392.5,-133 309.5,-133 309.5,-114 392.5,-114 392.5,-133"/>
<text text-anchor="middle" x="351" y="-121" font-family="Helvetica,sans-Serif" font-size="10.00">get_total_bytes</text>
</a>
</g>
</g>
<!-- Node15&#45;&gt;Node16 -->
<g id="edge21" class="edge">
<title>Node15&#45;&gt;Node16</title>
<path fill="none" stroke="#63b8ff" d="M267.87,-137.56C277.22,-135.96 287.88,-134.13 298.36,-132.34"/>
<polygon fill="#63b8ff" stroke="#63b8ff" points="298.89,-135.63 308.15,-130.49 297.71,-128.73 298.89,-135.63"/>
</g>
<!-- Node16&#45;&gt;Node7 -->
<g id="edge23" class="edge">
<title>Node16&#45;&gt;Node7</title>
<path fill="none" stroke="#63b8ff" d="M385.11,-133.48C400.3,-138.07 418.51,-143.56 434.77,-148.46"/>
<polygon fill="#63b8ff" stroke="#63b8ff" points="433.53,-152.05 444.12,-151.58 435.55,-145.34 433.53,-152.05"/>
</g>
<!-- Node16&#45;&gt;Node11 -->
<g id="edge22" class="edge">
<title>Node16&#45;&gt;Node11</title>
<path fill="none" stroke="#63b8ff" d="M392.91,-117.33C402.3,-115.91 412.45,-114.39 422.34,-112.89"/>
<polygon fill="#63b8ff" stroke="#63b8ff" points="422.57,-116.25 431.94,-111.29 421.53,-109.32 422.57,-116.25"/>
</g>
</g>
</svg>
