<?xml version="1.0" encoding="UTF-8" standalone="no"?>
<!DOCTYPE svg PUBLIC "-//W3C//DTD SVG 1.1//EN"
 "http://www.w3.org/Graphics/SVG/1.1/DTD/svg11.dtd">
<!-- Generated by graphviz version 8.0.2 (0)
 -->
<!-- Title: /home/ssergiu/projects/cub3d/src/main.c Pages: 1 -->
<svg width="473pt" height="214pt"
 viewBox="0.00 0.00 473.00 214.00" xmlns="http://www.w3.org/2000/svg" xmlns:xlink="http://www.w3.org/1999/xlink">
<g id="graph0" class="graph" transform="scale(1 1) rotate(0) translate(4 210)">
<title>/home/ssergiu/projects/cub3d/src/main.c</title>
<!-- Node1 -->
<g id="node1" class="node">
<title>Node1</title>
<g id="a_node1"><a xlink:title=" ">
<polygon fill="#999999" stroke="#666666" points="242,-206 126,-206 126,-176 242,-176 242,-206"/>
<text text-anchor="start" x="134" y="-194" font-family="Helvetica,sans-Serif" font-size="10.00">/home/ssergiu/projects</text>
<text text-anchor="middle" x="184" y="-183" font-family="Helvetica,sans-Serif" font-size="10.00">/cub3d/src/main.c</text>
</a>
</g>
</g>
<!-- Node2 -->
<g id="node2" class="node">
<title>Node2</title>
<g id="a_node2"><a xlink:href="cub3D_8h.html" target="_top" xlink:title=" ">
<polygon fill="white" stroke="#666666" points="232,-140 136,-140 136,-121 232,-121 232,-140"/>
<text text-anchor="middle" x="184" y="-128" font-family="Helvetica,sans-Serif" font-size="10.00">../include/cub3D.h</text>
</a>
</g>
</g>
<!-- Node1&#45;&gt;Node2 -->
<g id="edge1" class="edge">
<title>Node1&#45;&gt;Node2</title>
<path fill="none" stroke="#63b8ff" d="M184,-175.54C184,-168.17 184,-159.1 184,-151.11"/>
<polygon fill="#63b8ff" stroke="#63b8ff" points="187.5,-151.18 184,-141.18 180.5,-151.18 187.5,-151.18"/>
</g>
<!-- Node3 -->
<g id="node3" class="node">
<title>Node3</title>
<g id="a_node3"><a xlink:title=" ">
<polygon fill="#e0e0e0" stroke="#999999" points="46,-79.5 0,-79.5 0,-60.5 46,-60.5 46,-79.5"/>
<text text-anchor="middle" x="23" y="-67.5" font-family="Helvetica,sans-Serif" font-size="10.00">stdio.h</text>
</a>
</g>
</g>
<!-- Node2&#45;&gt;Node3 -->
<g id="edge2" class="edge">
<title>Node2&#45;&gt;Node3</title>
<path fill="none" stroke="#63b8ff" d="M155.83,-120.51C129.54,-111.94 89.32,-98.4 55,-85 54.26,-84.71 53.51,-84.41 52.75,-84.11"/>
<polygon fill="#63b8ff" stroke="#63b8ff" points="54.45,-80.61 43.87,-79.99 51.75,-87.07 54.45,-80.61"/>
</g>
<!-- Node4 -->
<g id="node4" class="node">
<title>Node4</title>
<g id="a_node4"><a xlink:title=" ">
<polygon fill="#e0e0e0" stroke="#999999" points="111.5,-79.5 64.5,-79.5 64.5,-60.5 111.5,-60.5 111.5,-79.5"/>
<text text-anchor="middle" x="88" y="-67.5" font-family="Helvetica,sans-Serif" font-size="10.00">errno.h</text>
</a>
</g>
</g>
<!-- Node2&#45;&gt;Node4 -->
<g id="edge3" class="edge">
<title>Node2&#45;&gt;Node4</title>
<path fill="none" stroke="#63b8ff" d="M169.42,-120.62C154.2,-111.34 130.07,-96.63 112.02,-85.64"/>
<polygon fill="#63b8ff" stroke="#63b8ff" points="114.08,-82.18 103.72,-79.97 110.44,-88.16 114.08,-82.18"/>
</g>
<!-- Node5 -->
<g id="node5" class="node">
<title>Node5</title>
<g id="a_node5"><a xlink:title=" ">
<polygon fill="#e0e0e0" stroke="#999999" points="174,-79.5 130,-79.5 130,-60.5 174,-60.5 174,-79.5"/>
<text text-anchor="middle" x="152" y="-67.5" font-family="Helvetica,sans-Serif" font-size="10.00">fcntl.h</text>
</a>
</g>
</g>
<!-- Node2&#45;&gt;Node5 -->
<g id="edge4" class="edge">
<title>Node2&#45;&gt;Node5</title>
<path fill="none" stroke="#63b8ff" d="M179.28,-120.87C174.74,-112.57 167.74,-99.78 161.97,-89.22"/>
<polygon fill="#63b8ff" stroke="#63b8ff" points="164.61,-87.76 156.74,-80.67 158.47,-91.12 164.61,-87.76"/>
</g>
<!-- Node6 -->
<g id="node6" class="node">
<title>Node6</title>
<g id="a_node6"><a xlink:title=" ">
<polygon fill="#e0e0e0" stroke="#999999" points="241.5,-79.5 192.5,-79.5 192.5,-60.5 241.5,-60.5 241.5,-79.5"/>
<text text-anchor="middle" x="217" y="-67.5" font-family="Helvetica,sans-Serif" font-size="10.00">string.h</text>
</a>
</g>
</g>
<!-- Node2&#45;&gt;Node6 -->
<g id="edge5" class="edge">
<title>Node2&#45;&gt;Node6</title>
<path fill="none" stroke="#63b8ff" d="M188.87,-120.87C193.55,-112.57 200.77,-99.78 206.72,-89.22"/>
<polygon fill="#63b8ff" stroke="#63b8ff" points="210.25,-91.1 212.11,-80.67 204.15,-87.66 210.25,-91.1"/>
</g>
<!-- Node7 -->
<g id="node7" class="node">
<title>Node7</title>
<g id="a_node7"><a xlink:href="libft_8h.html" target="_top" xlink:title=" ">
<polygon fill="white" stroke="#666666" points="318.5,-79.5 259.5,-79.5 259.5,-60.5 318.5,-60.5 318.5,-79.5"/>
<text text-anchor="middle" x="289" y="-67.5" font-family="Helvetica,sans-Serif" font-size="10.00">libft/libft.h</text>
</a>
</g>
</g>
<!-- Node2&#45;&gt;Node7 -->
<g id="edge6" class="edge">
<title>Node2&#45;&gt;Node7</title>
<path fill="none" stroke="#63b8ff" d="M199.95,-120.62C216.83,-111.21 243.72,-96.22 263.55,-85.18"/>
<polygon fill="#63b8ff" stroke="#63b8ff" points="264.87,-87.89 271.9,-79.97 261.46,-81.78 264.87,-87.89"/>
</g>
<!-- Node11 -->
<g id="node11" class="node">
<title>Node11</title>
<g id="a_node11"><a xlink:title=" ">
<polygon fill="#e0e0e0" stroke="#999999" points="465,-85 337,-85 337,-55 465,-55 465,-85"/>
<text text-anchor="start" x="345" y="-73" font-family="Helvetica,sans-Serif" font-size="10.00">../external/MLX42/include</text>
<text text-anchor="middle" x="401" y="-62" font-family="Helvetica,sans-Serif" font-size="10.00">/MLX42/MLX42.h</text>
</a>
</g>
</g>
<!-- Node2&#45;&gt;Node11 -->
<g id="edge10" class="edge">
<title>Node2&#45;&gt;Node11</title>
<path fill="none" stroke="#63b8ff" d="M216.96,-120.62C248.67,-112.07 297.48,-98.91 336.86,-88.29"/>
<polygon fill="#63b8ff" stroke="#63b8ff" points="337.69,-91.42 346.44,-85.44 335.87,-84.66 337.69,-91.42"/>
</g>
<!-- Node8 -->
<g id="node8" class="node">
<title>Node8</title>
<g id="a_node8"><a xlink:title=" ">
<polygon fill="#e0e0e0" stroke="#999999" points="245,-19 193,-19 193,0 245,0 245,-19"/>
<text text-anchor="middle" x="219" y="-7" font-family="Helvetica,sans-Serif" font-size="10.00">stddef.h</text>
</a>
</g>
</g>
<!-- Node7&#45;&gt;Node8 -->
<g id="edge7" class="edge">
<title>Node7&#45;&gt;Node8</title>
<path fill="none" stroke="#63b8ff" d="M278.37,-60.12C267.68,-51.18 250.97,-37.22 238,-26.37"/>
<polygon fill="#63b8ff" stroke="#63b8ff" points="240.65,-23.2 230.73,-19.47 236.16,-28.57 240.65,-23.2"/>
</g>
<!-- Node9 -->
<g id="node9" class="node">
<title>Node9</title>
<g id="a_node9"><a xlink:title=" ">
<polygon fill="#e0e0e0" stroke="#999999" points="314.5,-19 263.5,-19 263.5,0 314.5,0 314.5,-19"/>
<text text-anchor="middle" x="289" y="-7" font-family="Helvetica,sans-Serif" font-size="10.00">unistd.h</text>
</a>
</g>
</g>
<!-- Node7&#45;&gt;Node9 -->
<g id="edge8" class="edge">
<title>Node7&#45;&gt;Node9</title>
<path fill="none" stroke="#63b8ff" d="M289,-60.37C289,-52.42 289,-40.33 289,-30.05"/>
<polygon fill="#63b8ff" stroke="#63b8ff" points="292.5,-30.17 289,-20.17 285.5,-30.17 292.5,-30.17"/>
</g>
<!-- Node10 -->
<g id="node10" class="node">
<title>Node10</title>
<g id="a_node10"><a xlink:title=" ">
<polygon fill="#e0e0e0" stroke="#999999" points="381,-19 333,-19 333,0 381,0 381,-19"/>
<text text-anchor="middle" x="357" y="-7" font-family="Helvetica,sans-Serif" font-size="10.00">stdlib.h</text>
</a>
</g>
</g>
<!-- Node7&#45;&gt;Node10 -->
<g id="edge9" class="edge">
<title>Node7&#45;&gt;Node10</title>
<path fill="none" stroke="#63b8ff" d="M299.33,-60.12C309.71,-51.18 325.95,-37.22 338.55,-26.37"/>
<polygon fill="#63b8ff" stroke="#63b8ff" points="340.28,-28.64 345.58,-19.47 335.71,-23.34 340.28,-28.64"/>
</g>
</g>
</svg>
