<?xml version="1.0" encoding="UTF-8" standalone="no"?>
<!DOCTYPE svg PUBLIC "-//W3C//DTD SVG 1.1//EN"
 "http://www.w3.org/Graphics/SVG/1.1/DTD/svg11.dtd">
<!-- Generated by graphviz version 8.0.2 (0)
 -->
<!-- Title: handle_error Pages: 1 -->
<svg width="276pt" height="27pt"
 viewBox="0.00 0.00 276.00 27.00" xmlns="http://www.w3.org/2000/svg" xmlns:xlink="http://www.w3.org/1999/xlink">
<g id="graph0" class="graph" transform="scale(1 1) rotate(0) translate(4 23)">
<title>handle_error</title>
<!-- Node1 -->
<g id="node1" class="node">
<title>Node1</title>
<g id="a_node1"><a xlink:title="Handles the given error number, prints an error message to the standard error output,...">
<polygon fill="#999999" stroke="#666666" points="70,-19 0,-19 0,0 70,0 70,-19"/>
<text text-anchor="middle" x="35" y="-7" font-family="Helvetica,sans-Serif" font-size="10.00">handle_error</text>
</a>
</g>
</g>
<!-- Node2 -->
<g id="node2" class="node">
<title>Node2</title>
<g id="a_node2"><a xlink:href="read__map_8c.html#af5c60b16fc036394aa182bd09cc16e5d" target="_top" xlink:title="Prints an error message to the standard error output.">
<polygon fill="white" stroke="#666666" points="166,-19 106,-19 106,0 166,0 166,-19"/>
<text text-anchor="middle" x="136" y="-7" font-family="Helvetica,sans-Serif" font-size="10.00">print_error</text>
</a>
</g>
</g>
<!-- Node1&#45;&gt;Node2 -->
<g id="edge1" class="edge">
<title>Node1&#45;&gt;Node2</title>
<path fill="none" stroke="#63b8ff" d="M70.35,-9.5C78.26,-9.5 86.74,-9.5 94.87,-9.5"/>
<polygon fill="#63b8ff" stroke="#63b8ff" points="94.65,-13 104.65,-9.5 94.65,-6 94.65,-13"/>
</g>
<!-- Node3 -->
<g id="node3" class="node">
<title>Node3</title>
<g id="a_node3"><a xlink:href="ft__putstring__fd_8c.html#acefce9ac519f8f8b7d3fde33dbafe469" target="_top" xlink:title=" ">
<polygon fill="white" stroke="#666666" points="268,-19 202,-19 202,0 268,0 268,-19"/>
<text text-anchor="middle" x="235" y="-7" font-family="Helvetica,sans-Serif" font-size="10.00">ft_putstr_fd</text>
</a>
</g>
</g>
<!-- Node2&#45;&gt;Node3 -->
<g id="edge2" class="edge">
<title>Node2&#45;&gt;Node3</title>
<path fill="none" stroke="#63b8ff" d="M166.37,-9.5C174.12,-9.5 182.65,-9.5 190.97,-9.5"/>
<polygon fill="#63b8ff" stroke="#63b8ff" points="190.69,-13 200.69,-9.5 190.69,-6 190.69,-13"/>
</g>
</g>
</svg>
