<?xml version="1.0" encoding="UTF-8" standalone="no"?>
<!DOCTYPE svg PUBLIC "-//W3C//DTD SVG 1.1//EN"
 "http://www.w3.org/Graphics/SVG/1.1/DTD/svg11.dtd">
<!-- Generated by graphviz version 8.0.2 (0)
 -->
<!-- Title: get_total_bytes Pages: 1 -->
<svg width="417pt" height="64pt"
 viewBox="0.00 0.00 417.00 64.00" xmlns="http://www.w3.org/2000/svg" xmlns:xlink="http://www.w3.org/1999/xlink">
<g id="graph0" class="graph" transform="scale(1 1) rotate(0) translate(4 60)">
<title>get_total_bytes</title>
<!-- Node1 -->
<g id="node1" class="node">
<title>Node1</title>
<g id="a_node1"><a xlink:title="Returns the total number of bytes in the file with the given filename.">
<polygon fill="#999999" stroke="#666666" points="83,-37 0,-37 0,-18 83,-18 83,-37"/>
<text text-anchor="middle" x="41.5" y="-25" font-family="Helvetica,sans-Serif" font-size="10.00">get_total_bytes</text>
</a>
</g>
</g>
<!-- Node2 -->
<g id="node2" class="node">
<title>Node2</title>
<g id="a_node2"><a xlink:href="read__map_8c.html#aabc8b9c956e025066b300e71e80f2590" target="_top" xlink:title="Frees any allocated memory and exits the program with the given error number.">
<polygon fill="white" stroke="#666666" points="211,-56 119,-56 119,-37 211,-37 211,-56"/>
<text text-anchor="middle" x="165" y="-44" font-family="Helvetica,sans-Serif" font-size="10.00">cleanup_and_exit</text>
</a>
</g>
</g>
<!-- Node1&#45;&gt;Node2 -->
<g id="edge1" class="edge">
<title>Node1&#45;&gt;Node2</title>
<path fill="none" stroke="#63b8ff" d="M83.3,-33.88C91.16,-35.11 99.52,-36.42 107.77,-37.71"/>
<polygon fill="#63b8ff" stroke="#63b8ff" points="107.08,-41.3 117.5,-39.38 108.16,-34.38 107.08,-41.3"/>
</g>
<!-- Node5 -->
<g id="node5" class="node">
<title>Node5</title>
<g id="a_node5"><a xlink:href="read__map_8c.html#af11ad10198633d526882d9ebabf21042" target="_top" xlink:title="Handles the given error number, prints an error message to the standard error output,...">
<polygon fill="white" stroke="#666666" points="200,-19 130,-19 130,0 200,0 200,-19"/>
<text text-anchor="middle" x="165" y="-7" font-family="Helvetica,sans-Serif" font-size="10.00">handle_error</text>
</a>
</g>
</g>
<!-- Node1&#45;&gt;Node5 -->
<g id="edge4" class="edge">
<title>Node1&#45;&gt;Node5</title>
<path fill="none" stroke="#63b8ff" d="M83.3,-21.46C94.68,-19.77 107.13,-17.93 118.76,-16.2"/>
<polygon fill="#63b8ff" stroke="#63b8ff" points="119.22,-19.52 128.6,-14.6 118.19,-12.6 119.22,-19.52"/>
</g>
<!-- Node3 -->
<g id="node3" class="node">
<title>Node3</title>
<g id="a_node3"><a xlink:href="read__map_8c.html#af5c60b16fc036394aa182bd09cc16e5d" target="_top" xlink:title="Prints an error message to the standard error output.">
<polygon fill="white" stroke="#666666" points="307,-37 247,-37 247,-18 307,-18 307,-37"/>
<text text-anchor="middle" x="277" y="-25" font-family="Helvetica,sans-Serif" font-size="10.00">print_error</text>
</a>
</g>
</g>
<!-- Node2&#45;&gt;Node3 -->
<g id="edge2" class="edge">
<title>Node2&#45;&gt;Node3</title>
<path fill="none" stroke="#63b8ff" d="M211.38,-38.66C219.6,-37.24 228.11,-35.77 236.16,-34.38"/>
<polygon fill="#63b8ff" stroke="#63b8ff" points="236.51,-37.7 245.76,-32.55 235.31,-30.8 236.51,-37.7"/>
</g>
<!-- Node4 -->
<g id="node4" class="node">
<title>Node4</title>
<g id="a_node4"><a xlink:href="ft__putstring__fd_8c.html#acefce9ac519f8f8b7d3fde33dbafe469" target="_top" xlink:title=" ">
<polygon fill="white" stroke="#666666" points="409,-37 343,-37 343,-18 409,-18 409,-37"/>
<text text-anchor="middle" x="376" y="-25" font-family="Helvetica,sans-Serif" font-size="10.00">ft_putstr_fd</text>
</a>
</g>
</g>
<!-- Node3&#45;&gt;Node4 -->
<g id="edge3" class="edge">
<title>Node3&#45;&gt;Node4</title>
<path fill="none" stroke="#63b8ff" d="M307.37,-27.5C315.12,-27.5 323.65,-27.5 331.97,-27.5"/>
<polygon fill="#63b8ff" stroke="#63b8ff" points="331.69,-31 341.69,-27.5 331.69,-24 331.69,-31"/>
</g>
<!-- Node5&#45;&gt;Node3 -->
<g id="edge5" class="edge">
<title>Node5&#45;&gt;Node3</title>
<path fill="none" stroke="#63b8ff" d="M200.2,-15.1C211.48,-16.94 224.13,-19.01 235.81,-20.92"/>
<polygon fill="#63b8ff" stroke="#63b8ff" points="235.21,-24.54 245.64,-22.7 236.34,-17.63 235.21,-24.54"/>
</g>
</g>
</svg>
