<?xml version="1.0" encoding="UTF-8" standalone="no"?>
<!DOCTYPE svg PUBLIC "-//W3C//DTD SVG 1.1//EN"
 "http://www.w3.org/Graphics/SVG/1.1/DTD/svg11.dtd">
<!-- Generated by graphviz version 8.0.2 (0)
 -->
<!-- Title: cleanup_and_exit Pages: 1 -->
<svg width="501pt" height="84pt"
 viewBox="0.00 0.00 501.00 84.00" xmlns="http://www.w3.org/2000/svg" xmlns:xlink="http://www.w3.org/1999/xlink">
<g id="graph0" class="graph" transform="scale(1 1) rotate(0) translate(4 80)">
<title>cleanup_and_exit</title>
<!-- Node1 -->
<g id="node1" class="node">
<title>Node1</title>
<g id="a_node1"><a xlink:title="Frees any allocated memory and exits the program with the given error number.">
<polygon fill="#999999" stroke="#666666" points="493,-38 401,-38 401,-19 493,-19 493,-38"/>
<text text-anchor="middle" x="447" y="-26" font-family="Helvetica,sans-Serif" font-size="10.00">cleanup_and_exit</text>
</a>
</g>
</g>
<!-- Node2 -->
<g id="node2" class="node">
<title>Node2</title>
<g id="a_node2"><a xlink:href="read__map_8c.html#a973f5273453bacdf37c27ef24bdd540d" target="_top" xlink:title="Returns the total number of bytes in the file with the given filename.">
<polygon fill="white" stroke="#666666" points="365,-76 282,-76 282,-57 365,-57 365,-76"/>
<text text-anchor="middle" x="323.5" y="-64" font-family="Helvetica,sans-Serif" font-size="10.00">get_total_bytes</text>
</a>
</g>
</g>
<!-- Node1&#45;&gt;Node2 -->
<g id="edge1" class="edge">
<title>Node1&#45;&gt;Node2</title>
<path fill="none" stroke="#63b8ff" d="M403.63,-41.75C388.05,-46.62 370.69,-52.05 356.21,-56.58"/>
<polygon fill="#63b8ff" stroke="#63b8ff" points="404.58,-44.81 413.08,-38.48 402.49,-38.13 404.58,-44.81"/>
</g>
<!-- Node3 -->
<g id="node3" class="node">
<title>Node3</title>
<g id="a_node3"><a xlink:href="read__map_8c.html#a4262bf4509b96716171e25f0f9f0644e" target="_top" xlink:title="Reads the contents of the file with the given name into a dynamically allocated buffer.">
<polygon fill="white" stroke="#666666" points="246,-38 187,-38 187,-19 246,-19 246,-38"/>
<text text-anchor="middle" x="216.5" y="-26" font-family="Helvetica,sans-Serif" font-size="10.00">read_map</text>
</a>
</g>
</g>
<!-- Node1&#45;&gt;Node3 -->
<g id="edge6" class="edge">
<title>Node1&#45;&gt;Node3</title>
<path fill="none" stroke="#63b8ff" d="M389.7,-28.5C344.21,-28.5 282.06,-28.5 246.21,-28.5"/>
<polygon fill="#63b8ff" stroke="#63b8ff" points="389.58,-32 399.58,-28.5 389.58,-25 389.58,-32"/>
</g>
<!-- Node4 -->
<g id="node4" class="node">
<title>Node4</title>
<g id="a_node4"><a xlink:href="draw__map__utils_8c.html#a3efc0a465ac3693c6748963564a7dc0e" target="_top" xlink:title="Initializes map data.">
<polygon fill="white" stroke="#666666" points="151,-19 74,-19 74,0 151,0 151,-19"/>
<text text-anchor="middle" x="112.5" y="-7" font-family="Helvetica,sans-Serif" font-size="10.00">init_map_data</text>
</a>
</g>
</g>
<!-- Node1&#45;&gt;Node4 -->
<g id="edge5" class="edge">
<title>Node1&#45;&gt;Node4</title>
<path fill="none" stroke="#63b8ff" d="M389.92,-22.21C349.88,-18.02 294.7,-12.87 246,-10.5 214.06,-8.94 177.74,-8.78 151.22,-8.96"/>
<polygon fill="#63b8ff" stroke="#63b8ff" points="389.48,-25.79 399.8,-23.36 390.22,-18.83 389.48,-25.79"/>
</g>
<!-- Node2&#45;&gt;Node3 -->
<g id="edge2" class="edge">
<title>Node2&#45;&gt;Node3</title>
<path fill="none" stroke="#63b8ff" d="M284.72,-52.83C271.56,-48.06 257.06,-42.82 244.9,-38.42"/>
<polygon fill="#63b8ff" stroke="#63b8ff" points="283.32,-56.4 293.91,-56.52 285.7,-49.82 283.32,-56.4"/>
</g>
<!-- Node3&#45;&gt;Node4 -->
<g id="edge3" class="edge">
<title>Node3&#45;&gt;Node4</title>
<path fill="none" stroke="#63b8ff" d="M175.86,-21.12C167.79,-19.61 159.31,-18.03 151.3,-16.54"/>
<polygon fill="#63b8ff" stroke="#63b8ff" points="175.07,-24.72 185.54,-23.11 176.35,-17.83 175.07,-24.72"/>
</g>
<!-- Node5 -->
<g id="node5" class="node">
<title>Node5</title>
<g id="a_node5"><a xlink:href="main_8c.html#a3c04138a5bfe5d72780bb7e82a18e627" target="_top" xlink:title=" ">
<polygon fill="white" stroke="#666666" points="38,-19 0,-19 0,0 38,0 38,-19"/>
<text text-anchor="middle" x="19" y="-7" font-family="Helvetica,sans-Serif" font-size="10.00">main</text>
</a>
</g>
</g>
<!-- Node4&#45;&gt;Node5 -->
<g id="edge4" class="edge">
<title>Node4&#45;&gt;Node5</title>
<path fill="none" stroke="#63b8ff" d="M62.77,-9.5C54.08,-9.5 45.54,-9.5 38.4,-9.5"/>
<polygon fill="#63b8ff" stroke="#63b8ff" points="62.76,-13 72.76,-9.5 62.76,-6 62.76,-13"/>
</g>
</g>
</svg>
