<?xml version="1.0" encoding="UTF-8" standalone="no"?>
<!DOCTYPE svg PUBLIC "-//W3C//DTD SVG 1.1//EN"
 "http://www.w3.org/Graphics/SVG/1.1/DTD/svg11.dtd">
<!-- Generated by graphviz version 8.0.2 (0)
 -->
<!-- Title: /home/ssergiu/projects/cub3d/src/map_utils/read_map.c Pages: 1 -->
<svg width="536pt" height="280pt"
 viewBox="0.00 0.00 536.00 280.00" xmlns="http://www.w3.org/2000/svg" xmlns:xlink="http://www.w3.org/1999/xlink">
<g id="graph0" class="graph" transform="scale(1 1) rotate(0) translate(4 276)">
<title>/home/ssergiu/projects/cub3d/src/map_utils/read_map.c</title>
<!-- Node1 -->
<g id="node1" class="node">
<title>Node1</title>
<g id="a_node1"><a xlink:title=" ">
<polygon fill="#999999" stroke="#666666" points="326.5,-272 165.5,-272 165.5,-242 326.5,-242 326.5,-272"/>
<text text-anchor="start" x="173.5" y="-260" font-family="Helvetica,sans-Serif" font-size="10.00">/home/ssergiu/projects</text>
<text text-anchor="middle" x="246" y="-249" font-family="Helvetica,sans-Serif" font-size="10.00">/cub3d/src/map_utils/read_map.c</text>
</a>
</g>
</g>
<!-- Node2 -->
<g id="node2" class="node">
<title>Node2</title>
<g id="a_node2"><a xlink:href="map__utils_8h.html" target="_top" xlink:title=" ">
<polygon fill="white" stroke="#666666" points="301,-206 191,-206 191,-176 301,-176 301,-206"/>
<text text-anchor="start" x="199" y="-194" font-family="Helvetica,sans-Serif" font-size="10.00">../../include/map_utils</text>
<text text-anchor="middle" x="246" y="-183" font-family="Helvetica,sans-Serif" font-size="10.00">/map_utils.h</text>
</a>
</g>
</g>
<!-- Node1&#45;&gt;Node2 -->
<g id="edge1" class="edge">
<title>Node1&#45;&gt;Node2</title>
<path fill="none" stroke="#63b8ff" d="M246,-241.8C246,-234.5 246,-225.41 246,-216.99"/>
<polygon fill="#63b8ff" stroke="#63b8ff" points="249.5,-217.16 246,-207.16 242.5,-217.16 249.5,-217.16"/>
</g>
<!-- Node3 -->
<g id="node3" class="node">
<title>Node3</title>
<g id="a_node3"><a xlink:href="cub3D_8h.html" target="_top" xlink:title=" ">
<polygon fill="white" stroke="#666666" points="248,-140 186,-140 186,-121 248,-121 248,-140"/>
<text text-anchor="middle" x="217" y="-128" font-family="Helvetica,sans-Serif" font-size="10.00">../cub3D.h</text>
</a>
</g>
</g>
<!-- Node2&#45;&gt;Node3 -->
<g id="edge2" class="edge">
<title>Node2&#45;&gt;Node3</title>
<path fill="none" stroke="#63b8ff" d="M238.83,-175.54C235.01,-167.82 230.26,-158.24 226.17,-149.99"/>
<polygon fill="#63b8ff" stroke="#63b8ff" points="228.88,-148.58 221.3,-141.18 222.61,-151.69 228.88,-148.58"/>
</g>
<!-- Node8 -->
<g id="node8" class="node">
<title>Node8</title>
<g id="a_node8"><a xlink:href="libft_8h.html" target="_top" xlink:title=" ">
<polygon fill="white" stroke="#666666" points="465.5,-79.5 406.5,-79.5 406.5,-60.5 465.5,-60.5 465.5,-79.5"/>
<text text-anchor="middle" x="436" y="-67.5" font-family="Helvetica,sans-Serif" font-size="10.00">libft/libft.h</text>
</a>
</g>
</g>
<!-- Node2&#45;&gt;Node8 -->
<g id="edge12" class="edge">
<title>Node2&#45;&gt;Node8</title>
<path fill="none" stroke="#63b8ff" d="M268.92,-175.65C305.34,-152.83 376.06,-108.54 412.71,-85.59"/>
<polygon fill="#63b8ff" stroke="#63b8ff" points="414.05,-88.25 420.67,-79.97 410.34,-82.32 414.05,-88.25"/>
</g>
<!-- Node4 -->
<g id="node4" class="node">
<title>Node4</title>
<g id="a_node4"><a xlink:title=" ">
<polygon fill="#e0e0e0" stroke="#999999" points="46,-79.5 0,-79.5 0,-60.5 46,-60.5 46,-79.5"/>
<text text-anchor="middle" x="23" y="-67.5" font-family="Helvetica,sans-Serif" font-size="10.00">stdio.h</text>
</a>
</g>
</g>
<!-- Node3&#45;&gt;Node4 -->
<g id="edge3" class="edge">
<title>Node3&#45;&gt;Node4</title>
<path fill="none" stroke="#63b8ff" d="M185.53,-122.28C152.58,-114.4 99.54,-100.77 55,-85 54.07,-84.67 53.14,-84.33 52.2,-83.98"/>
<polygon fill="#63b8ff" stroke="#63b8ff" points="53.69,-80.4 43.11,-79.9 51.07,-86.89 53.69,-80.4"/>
</g>
<!-- Node5 -->
<g id="node5" class="node">
<title>Node5</title>
<g id="a_node5"><a xlink:title=" ">
<polygon fill="#e0e0e0" stroke="#999999" points="111.5,-79.5 64.5,-79.5 64.5,-60.5 111.5,-60.5 111.5,-79.5"/>
<text text-anchor="middle" x="88" y="-67.5" font-family="Helvetica,sans-Serif" font-size="10.00">errno.h</text>
</a>
</g>
</g>
<!-- Node3&#45;&gt;Node5 -->
<g id="edge4" class="edge">
<title>Node3&#45;&gt;Node5</title>
<path fill="none" stroke="#63b8ff" d="M197.41,-120.62C176.19,-110.99 142.11,-95.54 117.62,-84.43"/>
<polygon fill="#63b8ff" stroke="#63b8ff" points="119.33,-80.91 108.78,-79.97 116.44,-87.29 119.33,-80.91"/>
</g>
<!-- Node6 -->
<g id="node6" class="node">
<title>Node6</title>
<g id="a_node6"><a xlink:title=" ">
<polygon fill="#e0e0e0" stroke="#999999" points="174,-79.5 130,-79.5 130,-60.5 174,-60.5 174,-79.5"/>
<text text-anchor="middle" x="152" y="-67.5" font-family="Helvetica,sans-Serif" font-size="10.00">fcntl.h</text>
</a>
</g>
</g>
<!-- Node3&#45;&gt;Node6 -->
<g id="edge5" class="edge">
<title>Node3&#45;&gt;Node6</title>
<path fill="none" stroke="#63b8ff" d="M207.13,-120.62C197.3,-111.77 181.98,-97.98 169.99,-87.19"/>
<polygon fill="#63b8ff" stroke="#63b8ff" points="172.74,-85.06 162.97,-80.97 168.06,-90.26 172.74,-85.06"/>
</g>
<!-- Node7 -->
<g id="node7" class="node">
<title>Node7</title>
<g id="a_node7"><a xlink:title=" ">
<polygon fill="#e0e0e0" stroke="#999999" points="241.5,-79.5 192.5,-79.5 192.5,-60.5 241.5,-60.5 241.5,-79.5"/>
<text text-anchor="middle" x="217" y="-67.5" font-family="Helvetica,sans-Serif" font-size="10.00">string.h</text>
</a>
</g>
</g>
<!-- Node3&#45;&gt;Node7 -->
<g id="edge6" class="edge">
<title>Node3&#45;&gt;Node7</title>
<path fill="none" stroke="#63b8ff" d="M217,-120.87C217,-112.92 217,-100.83 217,-90.55"/>
<polygon fill="#63b8ff" stroke="#63b8ff" points="220.5,-90.67 217,-80.67 213.5,-90.67 220.5,-90.67"/>
</g>
<!-- Node3&#45;&gt;Node8 -->
<g id="edge7" class="edge">
<title>Node3&#45;&gt;Node8</title>
<path fill="none" stroke="#63b8ff" d="M248.48,-122.74C284.62,-114.75 345.54,-100.55 397,-85 398.7,-84.48 400.44,-83.94 402.2,-83.37"/>
<polygon fill="#63b8ff" stroke="#63b8ff" points="402.86,-86.5 411.2,-79.98 400.61,-79.87 402.86,-86.5"/>
</g>
<!-- Node12 -->
<g id="node12" class="node">
<title>Node12</title>
<g id="a_node12"><a xlink:title=" ">
<polygon fill="#e0e0e0" stroke="#999999" points="388,-85 260,-85 260,-55 388,-55 388,-85"/>
<text text-anchor="start" x="268" y="-73" font-family="Helvetica,sans-Serif" font-size="10.00">../external/MLX42/include</text>
<text text-anchor="middle" x="324" y="-62" font-family="Helvetica,sans-Serif" font-size="10.00">/MLX42/MLX42.h</text>
</a>
</g>
</g>
<!-- Node3&#45;&gt;Node12 -->
<g id="edge11" class="edge">
<title>Node3&#45;&gt;Node12</title>
<path fill="none" stroke="#63b8ff" d="M233.25,-120.62C247.72,-112.7 269.41,-100.85 287.95,-90.71"/>
<polygon fill="#63b8ff" stroke="#63b8ff" points="289.49,-93.31 296.59,-85.44 286.14,-87.17 289.49,-93.31"/>
</g>
<!-- Node9 -->
<g id="node9" class="node">
<title>Node9</title>
<g id="a_node9"><a xlink:title=" ">
<polygon fill="#e0e0e0" stroke="#999999" points="392,-19 340,-19 340,0 392,0 392,-19"/>
<text text-anchor="middle" x="366" y="-7" font-family="Helvetica,sans-Serif" font-size="10.00">stddef.h</text>
</a>
</g>
</g>
<!-- Node8&#45;&gt;Node9 -->
<g id="edge8" class="edge">
<title>Node8&#45;&gt;Node9</title>
<path fill="none" stroke="#63b8ff" d="M425.37,-60.12C414.68,-51.18 397.97,-37.22 385,-26.37"/>
<polygon fill="#63b8ff" stroke="#63b8ff" points="387.65,-23.2 377.73,-19.47 383.16,-28.57 387.65,-23.2"/>
</g>
<!-- Node10 -->
<g id="node10" class="node">
<title>Node10</title>
<g id="a_node10"><a xlink:title=" ">
<polygon fill="#e0e0e0" stroke="#999999" points="461.5,-19 410.5,-19 410.5,0 461.5,0 461.5,-19"/>
<text text-anchor="middle" x="436" y="-7" font-family="Helvetica,sans-Serif" font-size="10.00">unistd.h</text>
</a>
</g>
</g>
<!-- Node8&#45;&gt;Node10 -->
<g id="edge9" class="edge">
<title>Node8&#45;&gt;Node10</title>
<path fill="none" stroke="#63b8ff" d="M436,-60.37C436,-52.42 436,-40.33 436,-30.05"/>
<polygon fill="#63b8ff" stroke="#63b8ff" points="439.5,-30.17 436,-20.17 432.5,-30.17 439.5,-30.17"/>
</g>
<!-- Node11 -->
<g id="node11" class="node">
<title>Node11</title>
<g id="a_node11"><a xlink:title=" ">
<polygon fill="#e0e0e0" stroke="#999999" points="528,-19 480,-19 480,0 528,0 528,-19"/>
<text text-anchor="middle" x="504" y="-7" font-family="Helvetica,sans-Serif" font-size="10.00">stdlib.h</text>
</a>
</g>
</g>
<!-- Node8&#45;&gt;Node11 -->
<g id="edge10" class="edge">
<title>Node8&#45;&gt;Node11</title>
<path fill="none" stroke="#63b8ff" d="M446.33,-60.12C456.71,-51.18 472.95,-37.22 485.55,-26.37"/>
<polygon fill="#63b8ff" stroke="#63b8ff" points="487.28,-28.64 492.58,-19.47 482.71,-23.34 487.28,-28.64"/>
</g>
</g>
</svg>
