<?xml version="1.0" encoding="UTF-8" standalone="no"?>
<!DOCTYPE svg PUBLIC "-//W3C//DTD SVG 1.1//EN"
 "http://www.w3.org/Graphics/SVG/1.1/DTD/svg11.dtd">
<!-- Generated by graphviz version 8.0.2 (0)
 -->
<!-- Title: read_map Pages: 1 -->
<svg width="512pt" height="64pt"
 viewBox="0.00 0.00 512.00 64.00" xmlns="http://www.w3.org/2000/svg" xmlns:xlink="http://www.w3.org/1999/xlink">
<g id="graph0" class="graph" transform="scale(1 1) rotate(0) translate(4 60)">
<title>read_map</title>
<!-- Node1 -->
<g id="node1" class="node">
<title>Node1</title>
<g id="a_node1"><a xlink:title="Reads the contents of the file with the given name into a dynamically allocated buffer.">
<polygon fill="#999999" stroke="#666666" points="59,-38 0,-38 0,-19 59,-19 59,-38"/>
<text text-anchor="middle" x="29.5" y="-26" font-family="Helvetica,sans-Serif" font-size="10.00">read_map</text>
</a>
</g>
</g>
<!-- Node2 -->
<g id="node2" class="node">
<title>Node2</title>
<g id="a_node2"><a xlink:href="read__map_8c.html#aabc8b9c956e025066b300e71e80f2590" target="_top" xlink:title="Frees any allocated memory and exits the program with the given error number.">
<polygon fill="white" stroke="#666666" points="306,-56 214,-56 214,-37 306,-37 306,-56"/>
<text text-anchor="middle" x="260" y="-44" font-family="Helvetica,sans-Serif" font-size="10.00">cleanup_and_exit</text>
</a>
</g>
</g>
<!-- Node1&#45;&gt;Node2 -->
<g id="edge1" class="edge">
<title>Node1&#45;&gt;Node2</title>
<path fill="none" stroke="#63b8ff" d="M57.74,-38.4C69.09,-42.04 82.52,-45.7 95,-47.5 130.54,-52.63 170.87,-52.46 202.65,-50.97"/>
<polygon fill="#63b8ff" stroke="#63b8ff" points="202.7,-54.42 212.5,-50.39 202.33,-47.43 202.7,-54.42"/>
</g>
<!-- Node5 -->
<g id="node5" class="node">
<title>Node5</title>
<g id="a_node5"><a xlink:href="read__map_8c.html#a973f5273453bacdf37c27ef24bdd540d" target="_top" xlink:title="Returns the total number of bytes in the file with the given filename.">
<polygon fill="white" stroke="#666666" points="178,-38 95,-38 95,-19 178,-19 178,-38"/>
<text text-anchor="middle" x="136.5" y="-26" font-family="Helvetica,sans-Serif" font-size="10.00">get_total_bytes</text>
</a>
</g>
</g>
<!-- Node1&#45;&gt;Node5 -->
<g id="edge4" class="edge">
<title>Node1&#45;&gt;Node5</title>
<path fill="none" stroke="#63b8ff" d="M59.47,-28.5C67.07,-28.5 75.49,-28.5 83.89,-28.5"/>
<polygon fill="#63b8ff" stroke="#63b8ff" points="83.84,-32 93.84,-28.5 83.84,-25 83.84,-32"/>
</g>
<!-- Node6 -->
<g id="node6" class="node">
<title>Node6</title>
<g id="a_node6"><a xlink:href="read__map_8c.html#af11ad10198633d526882d9ebabf21042" target="_top" xlink:title="Handles the given error number, prints an error message to the standard error output,...">
<polygon fill="white" stroke="#666666" points="295,-19 225,-19 225,0 295,0 295,-19"/>
<text text-anchor="middle" x="260" y="-7" font-family="Helvetica,sans-Serif" font-size="10.00">handle_error</text>
</a>
</g>
</g>
<!-- Node1&#45;&gt;Node6 -->
<g id="edge8" class="edge">
<title>Node1&#45;&gt;Node6</title>
<path fill="none" stroke="#63b8ff" d="M57.74,-18.6C69.09,-14.96 82.52,-11.3 95,-9.5 134.88,-3.75 180.78,-4.36 213.86,-6.05"/>
<polygon fill="#63b8ff" stroke="#63b8ff" points="213.38,-9.58 223.56,-6.66 213.77,-2.6 213.38,-9.58"/>
</g>
<!-- Node3 -->
<g id="node3" class="node">
<title>Node3</title>
<g id="a_node3"><a xlink:href="read__map_8c.html#af5c60b16fc036394aa182bd09cc16e5d" target="_top" xlink:title="Prints an error message to the standard error output.">
<polygon fill="white" stroke="#666666" points="402,-37 342,-37 342,-18 402,-18 402,-37"/>
<text text-anchor="middle" x="372" y="-25" font-family="Helvetica,sans-Serif" font-size="10.00">print_error</text>
</a>
</g>
</g>
<!-- Node2&#45;&gt;Node3 -->
<g id="edge2" class="edge">
<title>Node2&#45;&gt;Node3</title>
<path fill="none" stroke="#63b8ff" d="M306.38,-38.66C314.6,-37.24 323.11,-35.77 331.16,-34.38"/>
<polygon fill="#63b8ff" stroke="#63b8ff" points="331.51,-37.7 340.76,-32.55 330.31,-30.8 331.51,-37.7"/>
</g>
<!-- Node4 -->
<g id="node4" class="node">
<title>Node4</title>
<g id="a_node4"><a xlink:href="ft__putstring__fd_8c.html#acefce9ac519f8f8b7d3fde33dbafe469" target="_top" xlink:title=" ">
<polygon fill="white" stroke="#666666" points="504,-37 438,-37 438,-18 504,-18 504,-37"/>
<text text-anchor="middle" x="471" y="-25" font-family="Helvetica,sans-Serif" font-size="10.00">ft_putstr_fd</text>
</a>
</g>
</g>
<!-- Node3&#45;&gt;Node4 -->
<g id="edge3" class="edge">
<title>Node3&#45;&gt;Node4</title>
<path fill="none" stroke="#63b8ff" d="M402.37,-27.5C410.12,-27.5 418.65,-27.5 426.97,-27.5"/>
<polygon fill="#63b8ff" stroke="#63b8ff" points="426.69,-31 436.69,-27.5 426.69,-24 426.69,-31"/>
</g>
<!-- Node5&#45;&gt;Node2 -->
<g id="edge5" class="edge">
<title>Node5&#45;&gt;Node2</title>
<path fill="none" stroke="#63b8ff" d="M178.3,-34.54C186.16,-35.71 194.52,-36.95 202.77,-38.17"/>
<polygon fill="#63b8ff" stroke="#63b8ff" points="202.1,-41.76 212.5,-39.76 203.12,-34.83 202.1,-41.76"/>
</g>
<!-- Node5&#45;&gt;Node6 -->
<g id="edge6" class="edge">
<title>Node5&#45;&gt;Node6</title>
<path fill="none" stroke="#63b8ff" d="M178.3,-22.12C189.68,-20.34 202.13,-18.39 213.76,-16.58"/>
<polygon fill="#63b8ff" stroke="#63b8ff" points="214.26,-19.88 223.6,-14.88 213.17,-12.97 214.26,-19.88"/>
</g>
<!-- Node6&#45;&gt;Node3 -->
<g id="edge7" class="edge">
<title>Node6&#45;&gt;Node3</title>
<path fill="none" stroke="#63b8ff" d="M295.2,-15.1C306.48,-16.94 319.13,-19.01 330.81,-20.92"/>
<polygon fill="#63b8ff" stroke="#63b8ff" points="330.21,-24.54 340.64,-22.7 331.34,-17.63 330.21,-24.54"/>
</g>
</g>
</svg>
