<?xml version="1.0" encoding="UTF-8" standalone="no"?>
<!DOCTYPE svg PUBLIC "-//W3C//DTD SVG 1.1//EN"
 "http://www.w3.org/Graphics/SVG/1.1/DTD/svg11.dtd">
<!-- Generated by graphviz version 8.0.2 (0)
 -->
<!-- Title: handle_error Pages: 1 -->
<svg width="512pt" height="106pt"
 viewBox="0.00 0.00 512.00 105.99" xmlns="http://www.w3.org/2000/svg" xmlns:xlink="http://www.w3.org/1999/xlink">
<g id="graph0" class="graph" transform="scale(1 1) rotate(0) translate(4 101.99)">
<title>handle_error</title>
<!-- Node1 -->
<g id="node1" class="node">
<title>Node1</title>
<g id="a_node1"><a xlink:title="Handles the given error number, prints an error message to the standard error output,...">
<polygon fill="#999999" stroke="#666666" points="504,-45.99 434,-45.99 434,-26.99 504,-26.99 504,-45.99"/>
<text text-anchor="middle" x="469" y="-33.99" font-family="Helvetica,sans-Serif" font-size="10.00">handle_error</text>
</a>
</g>
</g>
<!-- Node2 -->
<g id="node2" class="node">
<title>Node2</title>
<g id="a_node2"><a xlink:href="read__map_8c.html#a287e1eb420c186ddb3ca11b0d5b6cab4" target="_top" xlink:title="Checks if the given filename is valid and ends with &quot;.cub&quot;.">
<polygon fill="white" stroke="#666666" points="279,-97.99 187,-97.99 187,-78.99 279,-78.99 279,-97.99"/>
<text text-anchor="middle" x="233" y="-85.99" font-family="Helvetica,sans-Serif" font-size="10.00">filename_is_valid</text>
</a>
</g>
</g>
<!-- Node1&#45;&gt;Node2 -->
<g id="edge1" class="edge">
<title>Node1&#45;&gt;Node2</title>
<path fill="none" stroke="#63b8ff" d="M444.81,-52.24C431.66,-60.34 414.57,-69.53 398,-74.49 359.13,-86.15 312.92,-89.18 279.48,-89.57"/>
<polygon fill="#63b8ff" stroke="#63b8ff" points="446.48,-54.69 453.02,-46.35 442.71,-48.79 446.48,-54.69"/>
</g>
<!-- Node4 -->
<g id="node4" class="node">
<title>Node4</title>
<g id="a_node4"><a xlink:href="read__map_8c.html#a973f5273453bacdf37c27ef24bdd540d" target="_top" xlink:title="Returns the total number of bytes in the file with the given filename.">
<polygon fill="white" stroke="#666666" points="398,-64.99 315,-64.99 315,-45.99 398,-45.99 398,-64.99"/>
<text text-anchor="middle" x="356.5" y="-52.99" font-family="Helvetica,sans-Serif" font-size="10.00">get_total_bytes</text>
</a>
</g>
</g>
<!-- Node1&#45;&gt;Node4 -->
<g id="edge3" class="edge">
<title>Node1&#45;&gt;Node4</title>
<path fill="none" stroke="#63b8ff" d="M422.87,-44.25C414.78,-45.64 406.39,-47.09 398.43,-48.46"/>
<polygon fill="#63b8ff" stroke="#63b8ff" points="423.38,-47.55 432.64,-42.4 422.19,-40.65 423.38,-47.55"/>
</g>
<!-- Node5 -->
<g id="node5" class="node">
<title>Node5</title>
<g id="a_node5"><a xlink:href="read__map_8c.html#a4262bf4509b96716171e25f0f9f0644e" target="_top" xlink:title="Reads the contents of the file with the given name into a dynamically allocated buffer.">
<polygon fill="white" stroke="#666666" points="262.5,-31.99 203.5,-31.99 203.5,-12.99 262.5,-12.99 262.5,-31.99"/>
<text text-anchor="middle" x="233" y="-19.99" font-family="Helvetica,sans-Serif" font-size="10.00">read_map</text>
</a>
</g>
</g>
<!-- Node1&#45;&gt;Node5 -->
<g id="edge8" class="edge">
<title>Node1&#45;&gt;Node5</title>
<path fill="none" stroke="#63b8ff" d="M423.15,-33.81C375.93,-30.99 303.01,-26.62 262.9,-24.22"/>
<polygon fill="#63b8ff" stroke="#63b8ff" points="422.78,-37.35 432.97,-34.46 423.2,-30.37 422.78,-37.35"/>
</g>
<!-- Node6 -->
<g id="node6" class="node">
<title>Node6</title>
<g id="a_node6"><a xlink:href="draw__map__utils_8c.html#a3efc0a465ac3693c6748963564a7dc0e" target="_top" xlink:title="Initializes map data.">
<polygon fill="white" stroke="#666666" points="151,-31.99 74,-31.99 74,-12.99 151,-12.99 151,-31.99"/>
<text text-anchor="middle" x="112.5" y="-19.99" font-family="Helvetica,sans-Serif" font-size="10.00">init_map_data</text>
</a>
</g>
</g>
<!-- Node1&#45;&gt;Node6 -->
<g id="edge7" class="edge">
<title>Node1&#45;&gt;Node6</title>
<path fill="none" stroke="#63b8ff" d="M423.28,-24.51C367.82,-11.2 270.37,7.11 187,-3.49 172.88,-5.29 157.59,-8.95 144.63,-12.59"/>
<polygon fill="#63b8ff" stroke="#63b8ff" points="422.26,-28.11 432.8,-27.1 423.93,-21.31 422.26,-28.11"/>
</g>
<!-- Node3 -->
<g id="node3" class="node">
<title>Node3</title>
<g id="a_node3"><a xlink:href="main_8c.html#a3c04138a5bfe5d72780bb7e82a18e627" target="_top" xlink:title=" ">
<polygon fill="white" stroke="#666666" points="38,-50.99 0,-50.99 0,-31.99 38,-31.99 38,-50.99"/>
<text text-anchor="middle" x="19" y="-38.99" font-family="Helvetica,sans-Serif" font-size="10.00">main</text>
</a>
</g>
</g>
<!-- Node2&#45;&gt;Node3 -->
<g id="edge2" class="edge">
<title>Node2&#45;&gt;Node3</title>
<path fill="none" stroke="#63b8ff" d="M176.39,-76.17C130.72,-66.04 68.78,-52.31 38.37,-45.57"/>
<polygon fill="#63b8ff" stroke="#63b8ff" points="175.52,-79.78 186.04,-78.53 177.03,-72.94 175.52,-79.78"/>
</g>
<!-- Node4&#45;&gt;Node5 -->
<g id="edge4" class="edge">
<title>Node4&#45;&gt;Node5</title>
<path fill="none" stroke="#63b8ff" d="M308.36,-42.69C293.05,-38.53 276.52,-34.04 262.95,-30.36"/>
<polygon fill="#63b8ff" stroke="#63b8ff" points="307.15,-46.26 317.72,-45.5 308.98,-39.5 307.15,-46.26"/>
</g>
<!-- Node5&#45;&gt;Node6 -->
<g id="edge5" class="edge">
<title>Node5&#45;&gt;Node6</title>
<path fill="none" stroke="#63b8ff" d="M192.28,-22.49C179,-22.49 164.26,-22.49 151.15,-22.49"/>
<polygon fill="#63b8ff" stroke="#63b8ff" points="192.01,-25.99 202.01,-22.49 192.01,-18.99 192.01,-25.99"/>
</g>
<!-- Node6&#45;&gt;Node3 -->
<g id="edge6" class="edge">
<title>Node6&#45;&gt;Node3</title>
<path fill="none" stroke="#63b8ff" d="M63.06,-32.55C54.27,-34.38 45.62,-36.17 38.4,-37.67"/>
<polygon fill="#63b8ff" stroke="#63b8ff" points="63.68,-35.79 72.76,-30.33 62.25,-28.94 63.68,-35.79"/>
</g>
</g>
</svg>
