<?xml version="1.0" encoding="UTF-8" standalone="no"?>
<!DOCTYPE svg PUBLIC "-//W3C//DTD SVG 1.1//EN"
 "http://www.w3.org/Graphics/SVG/1.1/DTD/svg11.dtd">
<!-- Generated by graphviz version 8.0.2 (0)
 -->
<!-- Title: filename_is_valid Pages: 1 -->
<svg width="404pt" height="101pt"
 viewBox="0.00 0.00 404.00 101.00" xmlns="http://www.w3.org/2000/svg" xmlns:xlink="http://www.w3.org/1999/xlink">
<g id="graph0" class="graph" transform="scale(1 1) rotate(0) translate(4 97)">
<title>filename_is_valid</title>
<!-- Node1 -->
<g id="node1" class="node">
<title>Node1</title>
<g id="a_node1"><a xlink:title="Checks if the given filename is valid and ends with &quot;.cub&quot;.">
<polygon fill="#999999" stroke="#666666" points="92,-56 0,-56 0,-37 92,-37 92,-56"/>
<text text-anchor="middle" x="46" y="-44" font-family="Helvetica,sans-Serif" font-size="10.00">filename_is_valid</text>
</a>
</g>
</g>
<!-- Node2 -->
<g id="node2" class="node">
<title>Node2</title>
<g id="a_node2"><a xlink:href="ft__strlen_8c.html#a828402378653640f545a4be2e00e92f9" target="_top" xlink:title="Calculates the length of a string.">
<polygon fill="white" stroke="#666666" points="189,-93 137,-93 137,-74 189,-74 189,-93"/>
<text text-anchor="middle" x="163" y="-81" font-family="Helvetica,sans-Serif" font-size="10.00">ft_strlen</text>
</a>
</g>
</g>
<!-- Node1&#45;&gt;Node2 -->
<g id="edge1" class="edge">
<title>Node1&#45;&gt;Node2</title>
<path fill="none" stroke="#63b8ff" d="M77.82,-56.42C92.74,-61.22 110.74,-67.01 126.26,-72"/>
<polygon fill="#63b8ff" stroke="#63b8ff" points="124.94,-75.58 135.54,-75.31 127.09,-68.91 124.94,-75.58"/>
</g>
<!-- Node3 -->
<g id="node3" class="node">
<title>Node3</title>
<g id="a_node3"><a xlink:href="ft__strncmp_8c.html#a9d2fe792187aa4ed08e5864fb2c4d6dc" target="_top" xlink:title="Compare the first n bytes of two strings.">
<polygon fill="white" stroke="#666666" points="194.5,-56 131.5,-56 131.5,-37 194.5,-37 194.5,-56"/>
<text text-anchor="middle" x="163" y="-44" font-family="Helvetica,sans-Serif" font-size="10.00">ft_strncmp</text>
</a>
</g>
</g>
<!-- Node1&#45;&gt;Node3 -->
<g id="edge2" class="edge">
<title>Node1&#45;&gt;Node3</title>
<path fill="none" stroke="#63b8ff" d="M92.45,-46.5C101.54,-46.5 111.06,-46.5 120.03,-46.5"/>
<polygon fill="#63b8ff" stroke="#63b8ff" points="120.03,-50 130.03,-46.5 120.03,-43 120.03,-50"/>
</g>
<!-- Node4 -->
<g id="node4" class="node">
<title>Node4</title>
<g id="a_node4"><a xlink:href="read__map_8c.html#af11ad10198633d526882d9ebabf21042" target="_top" xlink:title="Handles the given error number, prints an error message to the standard error output,...">
<polygon fill="white" stroke="#666666" points="198,-19 128,-19 128,0 198,0 198,-19"/>
<text text-anchor="middle" x="163" y="-7" font-family="Helvetica,sans-Serif" font-size="10.00">handle_error</text>
</a>
</g>
</g>
<!-- Node1&#45;&gt;Node4 -->
<g id="edge3" class="edge">
<title>Node1&#45;&gt;Node4</title>
<path fill="none" stroke="#63b8ff" d="M77.82,-36.58C90.97,-32.35 106.51,-27.35 120.63,-22.81"/>
<polygon fill="#63b8ff" stroke="#63b8ff" points="121.65,-25.84 130.1,-19.44 119.51,-19.17 121.65,-25.84"/>
</g>
<!-- Node5 -->
<g id="node5" class="node">
<title>Node5</title>
<g id="a_node5"><a xlink:href="read__map_8c.html#af5c60b16fc036394aa182bd09cc16e5d" target="_top" xlink:title="Prints an error message to the standard error output.">
<polygon fill="white" stroke="#666666" points="294,-19 234,-19 234,0 294,0 294,-19"/>
<text text-anchor="middle" x="264" y="-7" font-family="Helvetica,sans-Serif" font-size="10.00">print_error</text>
</a>
</g>
</g>
<!-- Node4&#45;&gt;Node5 -->
<g id="edge4" class="edge">
<title>Node4&#45;&gt;Node5</title>
<path fill="none" stroke="#63b8ff" d="M198.35,-9.5C206.26,-9.5 214.74,-9.5 222.87,-9.5"/>
<polygon fill="#63b8ff" stroke="#63b8ff" points="222.65,-13 232.65,-9.5 222.65,-6 222.65,-13"/>
</g>
<!-- Node6 -->
<g id="node6" class="node">
<title>Node6</title>
<g id="a_node6"><a xlink:href="ft__putstring__fd_8c.html#acefce9ac519f8f8b7d3fde33dbafe469" target="_top" xlink:title=" ">
<polygon fill="white" stroke="#666666" points="396,-19 330,-19 330,0 396,0 396,-19"/>
<text text-anchor="middle" x="363" y="-7" font-family="Helvetica,sans-Serif" font-size="10.00">ft_putstr_fd</text>
</a>
</g>
</g>
<!-- Node5&#45;&gt;Node6 -->
<g id="edge5" class="edge">
<title>Node5&#45;&gt;Node6</title>
<path fill="none" stroke="#63b8ff" d="M294.37,-9.5C302.12,-9.5 310.65,-9.5 318.97,-9.5"/>
<polygon fill="#63b8ff" stroke="#63b8ff" points="318.69,-13 328.69,-9.5 318.69,-6 318.69,-13"/>
</g>
</g>
</svg>
